<svg xmlns="http://www.w3.org/2000/svg" width="905px" height="866px" viewBox="0 0 905 866" xmlns:xlink="http://www.w3.org/1999/xlink" style="overflow: auto; display: block; width: 905px; height: 866px;"><rect width="905px" height="866px" fill="white"/><clipPath id="ygc98_22"><rect x="25" y="25" width="854.176" height="815.551"/></clipPath><g clip-path="url(#ygc98_22)"><g style="pointer-events:visiblePainted" transform="translate(30 30)" image-rendering="auto" shape-rendering="auto"><g style="box-sizing:initial;"><g><path fill="none" stroke="rgb(205,220,57)" d="M 422.08787847867995,430.2753730782288 L 422.08787847867984,636.9172920640154" stroke-opacity="1" stroke-width="2" stroke-linecap="butt" stroke-linejoin="miter" stroke-miterlimit="10"/><use xlink:href="#ygc98_0" transform="matrix(4.1262261166417437e-16 -0.75 0.75 4.1262261166417437e-16 422.08787847867984 640.6672920640154)" style="pointer-events: none;"/></g><g><path fill="none" stroke="rgb(205,220,57)" d="M 435.83787847867995,426.5910716823009 L 539.1588379715732,605.5482230107581" stroke-opacity="1" stroke-width="2" stroke-linecap="butt" stroke-linejoin="miter" stroke-miterlimit="10"/><use xlink:href="#ygc98_1" transform="matrix(-0.3749999999999998 -0.6495190528383291 0.6495190528383291 -0.3749999999999998 541.0338379715732 608.7958182749497)" style="pointer-events: none;"/></g><g><path fill="none" stroke="rgb(205,220,57)" d="M 445.903577082752,416.5253730782288 L 624.8607284112092,519.8463325711222" stroke-opacity="1" stroke-width="2" stroke-linecap="butt" stroke-linejoin="miter" stroke-miterlimit="10"/><use xlink:href="#ygc98_2" transform="matrix(-0.649519052838329 -0.3750000000000001 0.3750000000000001 -0.649519052838329 628.1083236754008 521.7213325711222)" style="pointer-events: none;"/></g><g><path fill="none" stroke="rgb(205,220,57)" d="M 449.58787847867995,402.7753730782288 L 656.2297974644666,402.7753730782288" stroke-opacity="1" stroke-width="2" stroke-linecap="butt" stroke-linejoin="miter" stroke-miterlimit="10"/><use xlink:href="#ygc98_3" transform="matrix(-0.75 0 0 -0.75 659.9797974644666 402.7753730782288)" style="pointer-events: none;"/></g><g><path fill="none" stroke="rgb(205,220,57)" d="M 445.903577082752,389.0253730782288 L 624.860728411209,285.7044135853354" stroke-opacity="1" stroke-width="2" stroke-linecap="butt" stroke-linejoin="miter" stroke-miterlimit="10"/><use xlink:href="#ygc98_4" transform="matrix(-0.6495190528383287 0.3750000000000005 -0.3750000000000005 -0.6495190528383287 628.1083236754007 283.8294135853354)" style="pointer-events: none;"/></g><g><path fill="none" stroke="rgb(158,158,158)" d="M 435.83787847867995,378.95967447415677 L 539.1588379715733,200.0025231456996" stroke-opacity="1" stroke-width="2" stroke-linecap="butt" stroke-linejoin="miter" stroke-miterlimit="10"/><use xlink:href="#ygc98_5" transform="matrix(-0.37500000000000017 0.649519052838329 -0.649519052838329 -0.37500000000000017 541.0338379715733 196.75492788150797)" style="pointer-events: none;"/></g><g><path fill="none" stroke="rgb(158,158,158)" d="M 422.08787847867995,375.2753730782288 L 422.0878784786801,168.6334540924422" stroke-opacity="1" stroke-width="2" stroke-linecap="butt" stroke-linejoin="miter" stroke-miterlimit="10"/><use xlink:href="#ygc98_6" transform="matrix(-6.189339174962617e-16 0.75 -0.75 -6.189339174962617e-16 422.0878784786801 164.8834540924422)" style="pointer-events: none;"/></g><g><path fill="none" stroke="rgb(156,39,176)" d="M 408.33787847867995,378.95967447415677 L 305.0169189857869,200.00252314569954" stroke-opacity="1" stroke-width="2" stroke-linecap="butt" stroke-linejoin="miter" stroke-miterlimit="10"/><use xlink:href="#ygc98_7" transform="matrix(0.3749999999999991 0.6495190528383296 -0.6495190528383296 0.3749999999999991 303.1419189857869 196.75492788150788)" style="pointer-events: none;"/></g><g><path fill="none" stroke="rgb(33,150,243)" d="M 216.06743328195932,283.8294135853352 L 395.02458461041624,387.15037307822877" stroke-opacity="1" stroke-width="2" stroke-linecap="butt" stroke-linejoin="miter" stroke-miterlimit="10"/><use xlink:href="#ygc98_8" transform="matrix(-0.6495190528383284 -0.375000000000001 0.375000000000001 -0.6495190528383284 398.2721798746079 389.02537307822877)" style="pointer-events: none;"/></g><g><path fill="none" stroke="rgb(76,175,80)" d="M 184.19595949289334,402.77537307822854 L 390.83787847867995,402.77537307822877" stroke-opacity="1" stroke-width="2" stroke-linecap="butt" stroke-linejoin="miter" stroke-miterlimit="10"/><use xlink:href="#ygc98_9" transform="matrix(-0.75 -8.252452233283487e-16 8.252452233283487e-16 -0.75 394.58787847867995 402.77537307822877)" style="pointer-events: none;"/></g><g><path fill="none" stroke="rgb(244,67,54)" d="M 216.067433281959,521.7213325711219 L 395.02458461041624,418.4003730782288" stroke-opacity="1" stroke-width="2" stroke-linecap="butt" stroke-linejoin="miter" stroke-miterlimit="10"/><use xlink:href="#ygc98_10" transform="matrix(-0.6495190528383293 0.3749999999999993 -0.3749999999999993 -0.6495190528383293 398.2721798746079 416.5253730782288)" style="pointer-events: none;"/></g><g><path fill="none" stroke="rgb(244,67,54)" d="M 303.1419189857865,608.7958182749495 L 406.46287847867995,429.83866694649254" stroke-opacity="1" stroke-width="2" stroke-linecap="butt" stroke-linejoin="miter" stroke-miterlimit="10"/><use xlink:href="#ygc98_11" transform="matrix(-0.37500000000000056 0.6495190528383286 -0.6495190528383286 -0.37500000000000056 408.33787847867995 426.5910716823009)" style="pointer-events: none;"/></g><g><path fill="none" stroke="rgb(244,67,54)" d="M 535.5242713576375,751.8966919583409 L 431.7446595528971,432.49588921245237" stroke-opacity="1" stroke-width="2" stroke-linecap="butt" stroke-linejoin="miter" stroke-miterlimit="10"/><use xlink:href="#ygc98_12" transform="matrix(0.23176274578121048 0.7132923872213653 -0.7132923872213653 0.23176274578121048 430.585845823991 428.92942727634556)" style="pointer-events: none;"/></g><g><path fill="none" stroke="rgb(96,125,139)" d="M 719.0682105969775,618.5442143433285 L 447.3696595528971,421.1436622123686" stroke-opacity="1" stroke-width="2" stroke-linecap="butt" stroke-linejoin="miter" stroke-miterlimit="10"/><use xlink:href="#ygc98_13" transform="matrix(0.6067627457812105 0.440838939219355 -0.440838939219355 0.6067627457812105 444.335845823991 418.93946751627186)" style="pointer-events: none;"/></g><g><path fill="none" stroke="rgb(96,125,139)" d="M 789.1757569573599,402.7753730782288 L 453.33787847867995,402.7753730782288" stroke-opacity="1" stroke-width="2" stroke-linecap="butt" stroke-linejoin="miter" stroke-miterlimit="10"/><use xlink:href="#ygc98_14" transform="matrix(0.75 0 0 0.75 449.58787847867995 402.7753730782288)" style="pointer-events: none;"/></g><g><path fill="none" stroke="rgb(96,125,139)" d="M 719.0682105969777,187.00653181312939 L 447.3696595528971,384.4070839440891" stroke-opacity="1" stroke-width="2" stroke-linecap="butt" stroke-linejoin="miter" stroke-miterlimit="10"/><use xlink:href="#ygc98_15" transform="matrix(0.6067627457812107 -0.4408389392193545 0.4408389392193545 0.6067627457812107 444.335845823991 386.61127864018584)" style="pointer-events: none;"/></g><g><path fill="none" stroke="rgb(96,125,139)" d="M 535.5242713576379,53.654054198116896 L 431.7446595528971,373.0548569440053" stroke-opacity="1" stroke-width="2" stroke-linecap="butt" stroke-linejoin="miter" stroke-miterlimit="10"/><use xlink:href="#ygc98_16" transform="matrix(0.2317627457812112 -0.713292387221365 0.713292387221365 0.2317627457812112 430.585845823991 376.6213188801121)" style="pointer-events: none;"/></g><g><path fill="none" stroke="rgb(96,125,139)" d="M 308.6514855997226,53.65405419811673 L 412.43109740446283,373.0548569440053" stroke-opacity="1" stroke-width="2" stroke-linecap="butt" stroke-linejoin="miter" stroke-miterlimit="10"/><use xlink:href="#ygc98_17" transform="matrix(-0.23176274578120998 -0.7132923872213655 0.7132923872213655 -0.23176274578120998 413.5899111333689 376.6213188801121)" style="pointer-events: none;"/></g><g><path fill="none" stroke="rgb(96,125,139)" d="M 125.1075463603824,187.00653181312916 L 396.80609740446283,384.40708394408904" stroke-opacity="1" stroke-width="2" stroke-linecap="butt" stroke-linejoin="miter" stroke-miterlimit="10"/><use xlink:href="#ygc98_18" transform="matrix(-0.6067627457812104 -0.4408389392193549 0.4408389392193549 -0.6067627457812104 399.8399111333689 386.6112786401858)" style="pointer-events: none;"/></g><g><path fill="none" stroke="rgb(96,125,139)" d="M 55,402.7753730782287 L 390.83787847867995,402.7753730782288" stroke-opacity="1" stroke-width="2" stroke-linecap="butt" stroke-linejoin="miter" stroke-miterlimit="10"/><use xlink:href="#ygc98_19" transform="matrix(-0.75 -2.53887764767502e-16 2.53887764767502e-16 -0.75 394.58787847867995 402.7753730782288)" style="pointer-events: none;"/></g><g><path fill="none" stroke="rgb(96,125,139)" d="M 125.10754636038226,618.5442143433283 L 396.80609740446283,421.14366221236855" stroke-opacity="1" stroke-width="2" stroke-linecap="butt" stroke-linejoin="miter" stroke-miterlimit="10"/><use xlink:href="#ygc98_20" transform="matrix(-0.6067627457812106 0.4408389392193547 -0.4408389392193547 -0.6067627457812106 399.8399111333689 418.9394675162718)" style="pointer-events: none;"/></g><g><path fill="none" stroke="rgb(96,125,139)" d="M 308.65148559972226,751.8966919583409 L 412.43109740446283,432.49588921245237" stroke-opacity="1" stroke-width="2" stroke-linecap="butt" stroke-linejoin="miter" stroke-miterlimit="10"/><use xlink:href="#ygc98_21" transform="matrix(-0.23176274578121067 0.7132923872213651 -0.7132923872213651 -0.23176274578121067 413.5899111333689 428.92942727634556)" style="pointer-events: none;"/></g><ellipse fill="rgb(33,150,243)" fill-opacity="1" stroke="rgb(6,68,117)" stroke-opacity="1" stroke-width="1" stroke-linecap="square" stroke-linejoin="miter" stroke-miterlimit="10" cx="422.088" cy="402.775" rx="27.5" ry="27.5"/><g transform="translate(394.58787847867995 393.7753730782288)"><rect fill="rgb(255,255,255)" stroke="none" fill-opacity="0.6980392156862745" x="0" y="0" width="55" height="18" rx="5" ry="5"/><text font-family="Arial" font-size="12px" font-style="normal" font-weight="normal" text-decoration="none" text-anchor="start" fill="rgb(0,0,0)" fill-opacity="1" dy="0.9166666666666666em" transform="translate(4 2)">1022789</text></g><ellipse fill="rgb(76,175,80)" fill-opacity="1" stroke="rgb(30,68,31)" stroke-opacity="1" stroke-width="1" stroke-linecap="square" stroke-linejoin="miter" stroke-miterlimit="10" cx="422.088" cy="668.167" rx="27.5" ry="27.5"/><g transform="translate(414.58787847867984 659.1672920640154)"><rect fill="rgb(255,255,255)" stroke="none" fill-opacity="0.6980392156862745" x="0" y="0" width="15" height="18" rx="5" ry="5"/><text font-family="Arial" font-size="12px" font-style="normal" font-weight="normal" text-decoration="none" text-anchor="start" fill="rgb(0,0,0)" fill-opacity="1" dy="0.9166666666666666em" transform="translate(4 2)">1</text></g><ellipse fill="rgb(76,175,80)" fill-opacity="1" stroke="rgb(30,68,31)" stroke-opacity="1" stroke-width="1" stroke-linecap="square" stroke-linejoin="miter" stroke-miterlimit="10" cx="554.784" cy="632.612" rx="27.5" ry="27.5"/><g transform="translate(547.2838379715732 623.6115168790218)"><rect fill="rgb(255,255,255)" stroke="none" fill-opacity="0.6980392156862745" x="0" y="0" width="15" height="18" rx="5" ry="5"/><text font-family="Arial" font-size="12px" font-style="normal" font-weight="normal" text-decoration="none" text-anchor="start" fill="rgb(0,0,0)" fill-opacity="1" dy="0.9166666666666666em" transform="translate(4 2)">2</text></g><ellipse fill="rgb(76,175,80)" fill-opacity="1" stroke="rgb(30,68,31)" stroke-opacity="1" stroke-width="1" stroke-linecap="square" stroke-linejoin="miter" stroke-miterlimit="10" cx="651.924" cy="535.471" rx="27.5" ry="27.5"/><g transform="translate(644.4240222794729 526.4713325711222)"><rect fill="rgb(255,255,255)" stroke="none" fill-opacity="0.6980392156862745" x="0" y="0" width="15" height="18" rx="5" ry="5"/><text font-family="Arial" font-size="12px" font-style="normal" font-weight="normal" text-decoration="none" text-anchor="start" fill="rgb(0,0,0)" fill-opacity="1" dy="0.9166666666666666em" transform="translate(4 2)">3</text></g><ellipse fill="rgb(76,175,80)" fill-opacity="1" stroke="rgb(30,68,31)" stroke-opacity="1" stroke-width="1" stroke-linecap="square" stroke-linejoin="miter" stroke-miterlimit="10" cx="687.48" cy="402.775" rx="27.5" ry="27.5"/><g transform="translate(679.9797974644666 393.7753730782288)"><rect fill="rgb(255,255,255)" stroke="none" fill-opacity="0.6980392156862745" x="0" y="0" width="15" height="18" rx="5" ry="5"/><text font-family="Arial" font-size="12px" font-style="normal" font-weight="normal" text-decoration="none" text-anchor="start" fill="rgb(0,0,0)" fill-opacity="1" dy="0.9166666666666666em" transform="translate(4 2)">4</text></g><ellipse fill="rgb(76,175,80)" fill-opacity="1" stroke="rgb(30,68,31)" stroke-opacity="1" stroke-width="1" stroke-linecap="square" stroke-linejoin="miter" stroke-miterlimit="10" cx="651.924" cy="270.079" rx="27.5" ry="27.5"/><g transform="translate(644.4240222794728 261.0794135853354)"><rect fill="rgb(255,255,255)" stroke="none" fill-opacity="0.6980392156862745" x="0" y="0" width="15" height="18" rx="5" ry="5"/><text font-family="Arial" font-size="12px" font-style="normal" font-weight="normal" text-decoration="none" text-anchor="start" fill="rgb(0,0,0)" fill-opacity="1" dy="0.9166666666666666em" transform="translate(4 2)">5</text></g><ellipse fill="rgb(244,67,54)" fill-opacity="1" stroke="rgb(137,16,8)" stroke-opacity="1" stroke-width="1" stroke-linecap="square" stroke-linejoin="miter" stroke-miterlimit="10" cx="554.784" cy="172.939" rx="27.5" ry="27.5"/><g transform="translate(547.2838379715733 163.9392292774359)"><rect fill="rgb(255,255,255)" stroke="none" fill-opacity="0.6980392156862745" x="0" y="0" width="15" height="18" rx="5" ry="5"/><text font-family="Arial" font-size="12px" font-style="normal" font-weight="normal" text-decoration="none" text-anchor="start" fill="rgb(0,0,0)" fill-opacity="1" dy="0.9166666666666666em" transform="translate(4 2)">3</text></g><ellipse fill="rgb(244,67,54)" fill-opacity="1" stroke="rgb(137,16,8)" stroke-opacity="1" stroke-width="1" stroke-linecap="square" stroke-linejoin="miter" stroke-miterlimit="10" cx="422.088" cy="137.383" rx="27.5" ry="27.5"/><g transform="translate(414.5878784786801 128.3834540924422)"><rect fill="rgb(255,255,255)" stroke="none" fill-opacity="0.6980392156862745" x="0" y="0" width="15" height="18" rx="5" ry="5"/><text font-family="Arial" font-size="12px" font-style="normal" font-weight="normal" text-decoration="none" text-anchor="start" fill="rgb(0,0,0)" fill-opacity="1" dy="0.9166666666666666em" transform="translate(4 2)">2</text></g><ellipse fill="rgb(96,125,139)" fill-opacity="1" stroke="rgb(33,44,48)" stroke-opacity="1" stroke-width="1" stroke-linecap="square" stroke-linejoin="miter" stroke-miterlimit="10" cx="289.392" cy="172.939" rx="27.5" ry="27.5"/><g transform="translate(281.89191898578696 163.9392292774358)"><rect fill="rgb(255,255,255)" stroke="none" fill-opacity="0.6980392156862745" x="0" y="0" width="15" height="18" rx="5" ry="5"/><text font-family="Arial" font-size="12px" font-style="normal" font-weight="normal" text-decoration="none" text-anchor="start" fill="rgb(0,0,0)" fill-opacity="1" dy="0.9166666666666666em" transform="translate(4 2)">8</text></g><ellipse fill="rgb(103,58,183)" fill-opacity="1" stroke="rgb(38,21,67)" stroke-opacity="1" stroke-width="1" stroke-linecap="square" stroke-linejoin="miter" stroke-miterlimit="10" cx="192.252" cy="270.079" rx="27.5" ry="27.5"/><g transform="translate(167.75173467788727 261.07941358533515)"><rect fill="rgb(255,255,255)" stroke="none" fill-opacity="0.6980392156862745" x="0" y="0" width="49" height="18" rx="5" ry="5"/><text font-family="Arial" font-size="12px" font-style="normal" font-weight="normal" text-decoration="none" text-anchor="start" fill="rgb(0,0,0)" fill-opacity="1" dy="0.9166666666666666em" transform="translate(4 2)">182001</text></g><ellipse fill="rgb(103,58,183)" fill-opacity="1" stroke="rgb(38,21,67)" stroke-opacity="1" stroke-width="1" stroke-linecap="square" stroke-linejoin="miter" stroke-miterlimit="10" cx="156.696" cy="402.775" rx="27.5" ry="27.5"/><g transform="translate(139.19595949289334 393.77537307822854)"><rect fill="rgb(255,255,255)" stroke="none" fill-opacity="0.6980392156862745" x="0" y="0" width="35" height="18" rx="5" ry="5"/><text font-family="Arial" font-size="12px" font-style="normal" font-weight="normal" text-decoration="none" text-anchor="start" fill="rgb(0,0,0)" fill-opacity="1" dy="0.9166666666666666em" transform="translate(4 2)">8103</text></g><ellipse fill="rgb(103,58,183)" fill-opacity="1" stroke="rgb(38,21,67)" stroke-opacity="1" stroke-width="1" stroke-linecap="square" stroke-linejoin="miter" stroke-miterlimit="10" cx="192.252" cy="535.471" rx="27.5" ry="27.5"/><g transform="translate(171.25173467788693 526.4713325711219)"><rect fill="rgb(255,255,255)" stroke="none" fill-opacity="0.6980392156862745" x="0" y="0" width="42" height="18" rx="5" ry="5"/><text font-family="Arial" font-size="12px" font-style="normal" font-weight="normal" text-decoration="none" text-anchor="start" fill="rgb(0,0,0)" fill-opacity="1" dy="0.9166666666666666em" transform="translate(4 2)">12890</text></g><ellipse fill="rgb(103,58,183)" fill-opacity="1" stroke="rgb(38,21,67)" stroke-opacity="1" stroke-width="1" stroke-linecap="square" stroke-linejoin="miter" stroke-miterlimit="10" cx="289.392" cy="632.612" rx="27.5" ry="27.5"/><g transform="translate(271.8919189857865 623.6115168790216)"><rect fill="rgb(255,255,255)" stroke="none" fill-opacity="0.6980392156862745" x="0" y="0" width="35" height="18" rx="5" ry="5"/><text font-family="Arial" font-size="12px" font-style="normal" font-weight="normal" text-decoration="none" text-anchor="start" fill="rgb(0,0,0)" fill-opacity="1" dy="0.9166666666666666em" transform="translate(4 2)">7940</text></g><ellipse fill="rgb(103,58,183)" fill-opacity="1" stroke="rgb(38,21,67)" stroke-opacity="1" stroke-width="1" stroke-linecap="square" stroke-linejoin="miter" stroke-miterlimit="10" cx="544.022" cy="778.051" rx="27.5" ry="27.5"/><g transform="translate(519.5222387029486 769.0507461564575)"><rect fill="rgb(255,255,255)" stroke="none" fill-opacity="0.6980392156862745" x="0" y="0" width="49" height="18" rx="5" ry="5"/><text font-family="Arial" font-size="12px" font-style="normal" font-weight="normal" text-decoration="none" text-anchor="start" fill="rgb(0,0,0)" fill-opacity="1" dy="0.9166666666666666em" transform="translate(4 2)">225976</text></g><ellipse fill="rgb(103,58,183)" fill-opacity="1" stroke="rgb(38,21,67)" stroke-opacity="1" stroke-width="1" stroke-linecap="square" stroke-linejoin="miter" stroke-miterlimit="10" cx="741.316" cy="634.708" rx="27.5" ry="27.5"/><g transform="translate(720.3161779422885 625.7083087813714)"><rect fill="rgb(255,255,255)" stroke="none" fill-opacity="0.6980392156862745" x="0" y="0" width="42" height="18" rx="5" ry="5"/><text font-family="Arial" font-size="12px" font-style="normal" font-weight="normal" text-decoration="none" text-anchor="start" fill="rgb(0,0,0)" fill-opacity="1" dy="0.9166666666666666em" transform="translate(4 2)">56322</text></g><ellipse fill="rgb(103,58,183)" fill-opacity="1" stroke="rgb(38,21,67)" stroke-opacity="1" stroke-width="1" stroke-linecap="square" stroke-linejoin="miter" stroke-miterlimit="10" cx="816.676" cy="402.775" rx="27.5" ry="27.5"/><g transform="translate(789.1757569573599 393.7753730782288)"><rect fill="rgb(255,255,255)" stroke="none" fill-opacity="0.6980392156862745" x="0" y="0" width="55" height="18" rx="5" ry="5"/><text font-family="Arial" font-size="12px" font-style="normal" font-weight="normal" text-decoration="none" text-anchor="start" fill="rgb(0,0,0)" fill-opacity="1" dy="0.9166666666666666em" transform="translate(4 2)">1903874</text></g><ellipse fill="rgb(103,58,183)" fill-opacity="1" stroke="rgb(38,21,67)" stroke-opacity="1" stroke-width="1" stroke-linecap="square" stroke-linejoin="miter" stroke-miterlimit="10" cx="741.316" cy="170.842" rx="27.5" ry="27.5"/><g transform="translate(713.8161779422887 161.84243737508638)"><rect fill="rgb(255,255,255)" stroke="none" fill-opacity="0.6980392156862745" x="0" y="0" width="55" height="18" rx="5" ry="5"/><text font-family="Arial" font-size="12px" font-style="normal" font-weight="normal" text-decoration="none" text-anchor="start" fill="rgb(0,0,0)" fill-opacity="1" dy="0.9166666666666666em" transform="translate(4 2)">3020876</text></g><ellipse fill="rgb(103,58,183)" fill-opacity="1" stroke="rgb(38,21,67)" stroke-opacity="1" stroke-width="1" stroke-linecap="square" stroke-linejoin="miter" stroke-miterlimit="10" cx="544.022" cy="27.5" rx="27.5" ry="27.5"/><g transform="translate(523.0222387029489 18.50000000000017)"><rect fill="rgb(255,255,255)" stroke="none" fill-opacity="0.6980392156862745" x="0" y="0" width="42" height="18" rx="5" ry="5"/><text font-family="Arial" font-size="12px" font-style="normal" font-weight="normal" text-decoration="none" text-anchor="start" fill="rgb(0,0,0)" fill-opacity="1" dy="0.9166666666666666em" transform="translate(4 2)">51998</text></g><ellipse fill="rgb(103,58,183)" fill-opacity="1" stroke="rgb(38,21,67)" stroke-opacity="1" stroke-width="1" stroke-linecap="square" stroke-linejoin="miter" stroke-miterlimit="10" cx="300.154" cy="27.5" rx="27.5" ry="27.5"/><g transform="translate(275.65351825441155 18.5)"><rect fill="rgb(255,255,255)" stroke="none" fill-opacity="0.6980392156862745" x="0" y="0" width="49" height="18" rx="5" ry="5"/><text font-family="Arial" font-size="12px" font-style="normal" font-weight="normal" text-decoration="none" text-anchor="start" fill="rgb(0,0,0)" fill-opacity="1" dy="0.9166666666666666em" transform="translate(4 2)">169200</text></g><ellipse fill="rgb(103,58,183)" fill-opacity="1" stroke="rgb(38,21,67)" stroke-opacity="1" stroke-width="1" stroke-linecap="square" stroke-linejoin="miter" stroke-miterlimit="10" cx="102.86" cy="170.842" rx="27.5" ry="27.5"/><g transform="translate(81.85957901507135 161.84243737508615)"><rect fill="rgb(255,255,255)" stroke="none" fill-opacity="0.6980392156862745" x="0" y="0" width="42" height="18" rx="5" ry="5"/><text font-family="Arial" font-size="12px" font-style="normal" font-weight="normal" text-decoration="none" text-anchor="start" fill="rgb(0,0,0)" fill-opacity="1" dy="0.9166666666666666em" transform="translate(4 2)">59258</text></g><ellipse fill="rgb(103,58,183)" fill-opacity="1" stroke="rgb(38,21,67)" stroke-opacity="1" stroke-width="1" stroke-linecap="square" stroke-linejoin="miter" stroke-miterlimit="10" cx="27.5" cy="402.775" rx="27.5" ry="27.5"/><g transform="translate(6.5 393.7753730782287)"><rect fill="rgb(255,255,255)" stroke="none" fill-opacity="0.6980392156862745" x="0" y="0" width="42" height="18" rx="5" ry="5"/><text font-family="Arial" font-size="12px" font-style="normal" font-weight="normal" text-decoration="none" text-anchor="start" fill="rgb(0,0,0)" fill-opacity="1" dy="0.9166666666666666em" transform="translate(4 2)">25147</text></g><ellipse fill="rgb(103,58,183)" fill-opacity="1" stroke="rgb(38,21,67)" stroke-opacity="1" stroke-width="1" stroke-linecap="square" stroke-linejoin="miter" stroke-miterlimit="10" cx="102.86" cy="634.708" rx="27.5" ry="27.5"/><g transform="translate(75.35957901507118 625.7083087813713)"><rect fill="rgb(255,255,255)" stroke="none" fill-opacity="0.6980392156862745" x="0" y="0" width="55" height="18" rx="5" ry="5"/><text font-family="Arial" font-size="12px" font-style="normal" font-weight="normal" text-decoration="none" text-anchor="start" fill="rgb(0,0,0)" fill-opacity="1" dy="0.9166666666666666em" transform="translate(4 2)">2195140</text></g><ellipse fill="rgb(103,58,183)" fill-opacity="1" stroke="rgb(38,21,67)" stroke-opacity="1" stroke-width="1" stroke-linecap="square" stroke-linejoin="miter" stroke-miterlimit="10" cx="300.154" cy="778.051" rx="27.5" ry="27.5"/><g transform="translate(275.6535182544112 769.0507461564575)"><rect fill="rgb(255,255,255)" stroke="none" fill-opacity="0.6980392156862745" x="0" y="0" width="49" height="18" rx="5" ry="5"/><text font-family="Arial" font-size="12px" font-style="normal" font-weight="normal" text-decoration="none" text-anchor="start" fill="rgb(0,0,0)" fill-opacity="1" dy="0.9166666666666666em" transform="translate(4 2)">586757</text></g><g transform="matrix(6.049014748177263e-16 -1 1 6.049014748177263e-16 413.0878784786799 604.971332571122)"><rect fill="rgb(255,255,255)" stroke="rgb(205,220,57)" fill-opacity="1" stroke-opacity="1" stroke-width="2" stroke-linecap="butt" stroke-linejoin="miter" stroke-miterlimit="10" x="0" y="0" width="139" height="18" rx="5" ry="5"/><text font-family="Arial" font-size="12px" font-style="normal" font-weight="normal" text-decoration="none" text-anchor="start" fill="rgb(0,0,0)" fill-opacity="1" dy="0.9166666666666666em" transform="translate(4 2)">BELONGS_TO_GENRE</text></g><g transform="matrix(0.4999999999999997 0.8660254037844388 -0.8660254037844388 0.4999999999999997 461.48008685918654 453.0046794156068)"><rect fill="rgb(255,255,255)" stroke="rgb(205,220,57)" fill-opacity="1" stroke-opacity="1" stroke-width="2" stroke-linecap="butt" stroke-linejoin="miter" stroke-miterlimit="10" x="0" y="0" width="139" height="18" rx="5" ry="5"/><text font-family="Arial" font-size="12px" font-style="normal" font-weight="normal" text-decoration="none" text-anchor="start" fill="rgb(0,0,0)" fill-opacity="1" dy="0.9166666666666666em" transform="translate(4 2)">BELONGS_TO_GENRE</text></g><g transform="matrix(0.8660254037844386 0.5000000000000001 -0.5000000000000001 0.8660254037844386 481.3171848160579 426.5791241906156)"><rect fill="rgb(255,255,255)" stroke="rgb(205,220,57)" fill-opacity="1" stroke-opacity="1" stroke-width="2" stroke-linecap="butt" stroke-linejoin="miter" stroke-miterlimit="10" x="0" y="0" width="139" height="18" rx="5" ry="5"/><text font-family="Arial" font-size="12px" font-style="normal" font-weight="normal" text-decoration="none" text-anchor="start" fill="rgb(0,0,0)" fill-opacity="1" dy="0.9166666666666666em" transform="translate(4 2)">BELONGS_TO_GENRE</text></g><g transform="translate(485.28383797157323 393.7753730782288)"><rect fill="rgb(255,255,255)" stroke="rgb(205,220,57)" fill-opacity="1" stroke-opacity="1" stroke-width="2" stroke-linecap="butt" stroke-linejoin="miter" stroke-miterlimit="10" x="0" y="0" width="139" height="18" rx="5" ry="5"/><text font-family="Arial" font-size="12px" font-style="normal" font-weight="normal" text-decoration="none" text-anchor="start" fill="rgb(0,0,0)" fill-opacity="1" dy="0.9166666666666666em" transform="translate(4 2)">BELONGS_TO_GENRE</text></g><g transform="matrix(0.8660254037844384 -0.5000000000000004 0.5000000000000004 0.8660254037844384 472.3171848160579 363.38316469772224)"><rect fill="rgb(255,255,255)" stroke="rgb(205,220,57)" fill-opacity="1" stroke-opacity="1" stroke-width="2" stroke-linecap="butt" stroke-linejoin="miter" stroke-miterlimit="10" x="0" y="0" width="139" height="18" rx="5" ry="5"/><text font-family="Arial" font-size="12px" font-style="normal" font-weight="normal" text-decoration="none" text-anchor="start" fill="rgb(0,0,0)" fill-opacity="1" dy="0.9166666666666666em" transform="translate(4 2)">BELONGS_TO_GENRE</text></g><g transform="matrix(0.5000000000000001 -0.8660254037844386 0.8660254037844386 0.5000000000000001 455.6416295910667 326.6585713670543)"><rect fill="rgb(255,255,255)" stroke="rgb(158,158,158)" fill-opacity="1" stroke-opacity="1" stroke-width="2" stroke-linecap="butt" stroke-linejoin="miter" stroke-miterlimit="10" x="0" y="0" width="100" height="18" rx="5" ry="5"/><text font-family="Arial" font-size="12px" font-style="normal" font-weight="normal" text-decoration="none" text-anchor="start" fill="rgb(0,0,0)" fill-opacity="1" dy="0.9166666666666666em" transform="translate(4 2)">PRODUCED_BY</text></g><g transform="matrix(7.273661547324616e-16 -1 1 7.273661547324616e-16 413.08787847868 320.0794135853355)"><rect fill="rgb(255,255,255)" stroke="rgb(158,158,158)" fill-opacity="1" stroke-opacity="1" stroke-width="2" stroke-linecap="butt" stroke-linejoin="miter" stroke-miterlimit="10" x="0" y="0" width="100" height="18" rx="5" ry="5"/><text font-family="Arial" font-size="12px" font-style="normal" font-weight="normal" text-decoration="none" text-anchor="start" fill="rgb(0,0,0)" fill-opacity="1" dy="0.9166666666666666em" transform="translate(4 2)">PRODUCED_BY</text></g><g transform="matrix(0.49999999999999867 0.8660254037844394 -0.8660254037844394 0.49999999999999867 334.28412736629343 232.69481505644265)"><rect fill="rgb(255,255,255)" stroke="rgb(156,39,176)" fill-opacity="1" stroke-opacity="1" stroke-width="2" stroke-linecap="butt" stroke-linejoin="miter" stroke-miterlimit="10" x="0" y="0" width="117" height="18" rx="5" ry="5"/><text font-family="Arial" font-size="12px" font-style="normal" font-weight="normal" text-decoration="none" text-anchor="start" fill="rgb(0,0,0)" fill-opacity="1" dy="0.9166666666666666em" transform="translate(4 2)">ORIGIN_COUNTRY</text></g><g transform="matrix(0.8660254037844379 0.5000000000000013 -0.5000000000000013 0.8660254037844379 280.9259047439361 310.883164697722)"><rect fill="rgb(255,255,255)" stroke="rgb(33,150,243)" fill-opacity="1" stroke-opacity="1" stroke-width="2" stroke-linecap="butt" stroke-linejoin="miter" stroke-miterlimit="10" x="0" y="0" width="71" height="18" rx="5" ry="5"/><text font-family="Arial" font-size="12px" font-style="normal" font-weight="normal" text-decoration="none" text-anchor="start" fill="rgb(0,0,0)" fill-opacity="1" dy="0.9166666666666666em" transform="translate(4 2)">DIRECTOR</text></g><g transform="translate(250.89191898578667 393.77537307822865)"><rect fill="rgb(255,255,255)" stroke="rgb(76,175,80)" fill-opacity="1" stroke-opacity="1" stroke-width="2" stroke-linecap="butt" stroke-linejoin="miter" stroke-miterlimit="10" x="0" y="0" width="77" height="18" rx="5" ry="5"/><text font-family="Arial" font-size="12px" font-style="normal" font-weight="normal" text-decoration="none" text-anchor="start" fill="rgb(0,0,0)" fill-opacity="1" dy="0.9166666666666666em" transform="translate(4 2)">PRODUCER</text></g><g transform="matrix(0.8660254037844392 -0.4999999999999991 0.4999999999999991 0.8660254037844392 236.8518758906661 499.3291241906153)"><rect fill="rgb(255,255,255)" stroke="rgb(244,67,54)" fill-opacity="1" stroke-opacity="1" stroke-width="2" stroke-linecap="butt" stroke-linejoin="miter" stroke-miterlimit="10" x="0" y="0" width="152" height="18" rx="5" ry="5"/><text font-family="Arial" font-size="12px" font-style="normal" font-weight="normal" text-decoration="none" text-anchor="start" fill="rgb(0,0,0)" fill-opacity="1" dy="0.9166666666666666em" transform="translate(4 2)">EXECUTIVE_PRODUCER</text></g><g transform="matrix(0.5000000000000007 -0.8660254037844383 0.8660254037844383 0.5000000000000007 309.94567009817325 579.0113756662424)"><rect fill="rgb(255,255,255)" stroke="rgb(244,67,54)" fill-opacity="1" stroke-opacity="1" stroke-width="2" stroke-linecap="butt" stroke-linejoin="miter" stroke-miterlimit="10" x="0" y="0" width="152" height="18" rx="5" ry="5"/><text font-family="Arial" font-size="12px" font-style="normal" font-weight="normal" text-decoration="none" text-anchor="start" fill="rgb(0,0,0)" fill-opacity="1" dy="0.9166666666666666em" transform="translate(4 2)">EXECUTIVE_PRODUCER</text></g><g transform="matrix(0.30901699437494756 0.9510565162951535 -0.9510565162951535 0.30901699437494756 468.12927566497456 515.351611429537)"><rect fill="rgb(255,255,255)" stroke="rgb(244,67,54)" fill-opacity="1" stroke-opacity="1" stroke-width="2" stroke-linecap="butt" stroke-linejoin="miter" stroke-miterlimit="10" x="0" y="0" width="152" height="18" rx="5" ry="5"/><text font-family="Arial" font-size="12px" font-style="normal" font-weight="normal" text-decoration="none" text-anchor="start" fill="rgb(0,0,0)" fill-opacity="1" dy="0.9166666666666666em" transform="translate(4 2)">EXECUTIVE_PRODUCER</text></g><g transform="matrix(0.8090169943749473 0.5877852522924732 -0.5877852522924732 0.8090169943749473 559.4855176723682 491.4759894024815)"><rect fill="rgb(255,255,255)" stroke="rgb(96,125,139)" fill-opacity="1" stroke-opacity="1" stroke-width="2" stroke-linecap="butt" stroke-linejoin="miter" stroke-miterlimit="10" x="0" y="0" width="68" height="18" rx="5" ry="5"/><text font-family="Arial" font-size="12px" font-style="normal" font-weight="normal" text-decoration="none" text-anchor="start" fill="rgb(0,0,0)" fill-opacity="1" dy="0.9166666666666666em" transform="translate(4 2)">ACTED_IN</text></g><g transform="matrix(1 1.2246467991473532e-16 -1.2246467991473532e-16 1 585.3818177180199 393.7753730782288)"><rect fill="rgb(255,255,255)" stroke="rgb(96,125,139)" fill-opacity="1" stroke-opacity="1" stroke-width="2" stroke-linecap="butt" stroke-linejoin="miter" stroke-miterlimit="10" x="0" y="0" width="68" height="18" rx="5" ry="5"/><text font-family="Arial" font-size="12px" font-style="normal" font-weight="normal" text-decoration="none" text-anchor="start" fill="rgb(0,0,0)" fill-opacity="1" dy="0.9166666666666666em" transform="translate(4 2)">ACTED_IN</text></g><g transform="matrix(0.8090169943749479 -0.5877852522924725 0.5877852522924725 0.8090169943749479 548.9053831311039 299.51245085522714)"><rect fill="rgb(255,255,255)" stroke="rgb(96,125,139)" fill-opacity="1" stroke-opacity="1" stroke-width="2" stroke-linecap="butt" stroke-linejoin="miter" stroke-miterlimit="10" x="0" y="0" width="68" height="18" rx="5" ry="5"/><text font-family="Arial" font-size="12px" font-style="normal" font-weight="normal" text-decoration="none" text-anchor="start" fill="rgb(0,0,0)" fill-opacity="1" dy="0.9166666666666666em" transform="translate(4 2)">ACTED_IN</text></g><g transform="matrix(0.3090169943749482 -0.9510565162951533 0.9510565162951533 0.3090169943749482 463.9889721354099 244.69245514377516)"><rect fill="rgb(255,255,255)" stroke="rgb(96,125,139)" fill-opacity="1" stroke-opacity="1" stroke-width="2" stroke-linecap="butt" stroke-linejoin="miter" stroke-miterlimit="10" x="0" y="0" width="68" height="18" rx="5" ry="5"/><text font-family="Arial" font-size="12px" font-style="normal" font-weight="normal" text-decoration="none" text-anchor="start" fill="rgb(0,0,0)" fill-opacity="1" dy="0.9166666666666666em" transform="translate(4 2)">ACTED_IN</text></g><g transform="matrix(0.3090169943749466 0.9510565162951539 -0.9510565162951539 0.3090169943749466 359.1736292044539 180.0206120357047)"><rect fill="rgb(255,255,255)" stroke="rgb(96,125,139)" fill-opacity="1" stroke-opacity="1" stroke-width="2" stroke-linecap="butt" stroke-linejoin="miter" stroke-miterlimit="10" x="0" y="0" width="68" height="18" rx="5" ry="5"/><text font-family="Arial" font-size="12px" font-style="normal" font-weight="normal" text-decoration="none" text-anchor="start" fill="rgb(0,0,0)" fill-opacity="1" dy="0.9166666666666666em" transform="translate(4 2)">ACTED_IN</text></g><g transform="matrix(0.8090169943749472 0.5877852522924734 -0.5877852522924734 0.8090169943749472 240.25721820875967 259.5430536993388)"><rect fill="rgb(255,255,255)" stroke="rgb(96,125,139)" fill-opacity="1" stroke-opacity="1" stroke-width="2" stroke-linecap="butt" stroke-linejoin="miter" stroke-miterlimit="10" x="0" y="0" width="68" height="18" rx="5" ry="5"/><text font-family="Arial" font-size="12px" font-style="normal" font-weight="normal" text-decoration="none" text-anchor="start" fill="rgb(0,0,0)" fill-opacity="1" dy="0.9166666666666666em" transform="translate(4 2)">ACTED_IN</text></g><g transform="translate(190.79393923933998 393.77537307822877)"><rect fill="rgb(255,255,255)" stroke="rgb(96,125,139)" fill-opacity="1" stroke-opacity="1" stroke-width="2" stroke-linecap="butt" stroke-linejoin="miter" stroke-miterlimit="10" x="0" y="0" width="68" height="18" rx="5" ry="5"/><text font-family="Arial" font-size="12px" font-style="normal" font-weight="normal" text-decoration="none" text-anchor="start" fill="rgb(0,0,0)" fill-opacity="1" dy="0.9166666666666666em" transform="translate(4 2)">ACTED_IN</text></g><g transform="matrix(0.8090169943749477 -0.5877852522924728 0.5877852522924728 0.8090169943749477 229.6770836674951 531.4453865583696)"><rect fill="rgb(255,255,255)" stroke="rgb(96,125,139)" fill-opacity="1" stroke-opacity="1" stroke-width="2" stroke-linecap="butt" stroke-linejoin="miter" stroke-miterlimit="10" x="0" y="0" width="68" height="18" rx="5" ry="5"/><text font-family="Arial" font-size="12px" font-style="normal" font-weight="normal" text-decoration="none" text-anchor="start" fill="rgb(0,0,0)" fill-opacity="1" dy="0.9166666666666666em" transform="translate(4 2)">ACTED_IN</text></g><g transform="matrix(0.30901699437494745 -0.9510565162951535 0.9510565162951535 0.30901699437494745 342.054611911141 619.9678282220037)"><rect fill="rgb(255,255,255)" stroke="rgb(96,125,139)" fill-opacity="1" stroke-opacity="1" stroke-width="2" stroke-linecap="butt" stroke-linejoin="miter" stroke-miterlimit="10" x="0" y="0" width="68" height="18" rx="5" ry="5"/><text font-family="Arial" font-size="12px" font-style="normal" font-weight="normal" text-decoration="none" text-anchor="start" fill="rgb(0,0,0)" fill-opacity="1" dy="0.9166666666666666em" transform="translate(4 2)">ACTED_IN</text></g></g></g></g><defs><path fill="rgb(205,220,57)" stroke="none" d="M 5,-5 L 0,0 L 5,5 Z" fill-opacity="1" id="ygc98_0"/><path fill="rgb(205,220,57)" stroke="none" d="M 5,-5 L 0,0 L 5,5 Z" fill-opacity="1" id="ygc98_1"/><path fill="rgb(205,220,57)" stroke="none" d="M 5,-5 L 0,0 L 5,5 Z" fill-opacity="1" id="ygc98_2"/><path fill="rgb(205,220,57)" stroke="none" d="M 5,-5 L 0,0 L 5,5 Z" fill-opacity="1" id="ygc98_3"/><path fill="rgb(205,220,57)" stroke="none" d="M 5,-5 L 0,0 L 5,5 Z" fill-opacity="1" id="ygc98_4"/><path fill="rgb(158,158,158)" stroke="none" d="M 5,-5 L 0,0 L 5,5 Z" fill-opacity="1" id="ygc98_5"/><path fill="rgb(158,158,158)" stroke="none" d="M 5,-5 L 0,0 L 5,5 Z" fill-opacity="1" id="ygc98_6"/><path fill="rgb(156,39,176)" stroke="none" d="M 5,-5 L 0,0 L 5,5 Z" fill-opacity="1" id="ygc98_7"/><path fill="rgb(33,150,243)" stroke="none" d="M 5,-5 L 0,0 L 5,5 Z" fill-opacity="1" id="ygc98_8"/><path fill="rgb(76,175,80)" stroke="none" d="M 5,-5 L 0,0 L 5,5 Z" fill-opacity="1" id="ygc98_9"/><path fill="rgb(244,67,54)" stroke="none" d="M 5,-5 L 0,0 L 5,5 Z" fill-opacity="1" id="ygc98_10"/><path fill="rgb(244,67,54)" stroke="none" d="M 5,-5 L 0,0 L 5,5 Z" fill-opacity="1" id="ygc98_11"/><path fill="rgb(244,67,54)" stroke="none" d="M 5,-5 L 0,0 L 5,5 Z" fill-opacity="1" id="ygc98_12"/><path fill="rgb(96,125,139)" stroke="none" d="M 5,-5 L 0,0 L 5,5 Z" fill-opacity="1" id="ygc98_13"/><path fill="rgb(96,125,139)" stroke="none" d="M 5,-5 L 0,0 L 5,5 Z" fill-opacity="1" id="ygc98_14"/><path fill="rgb(96,125,139)" stroke="none" d="M 5,-5 L 0,0 L 5,5 Z" fill-opacity="1" id="ygc98_15"/><path fill="rgb(96,125,139)" stroke="none" d="M 5,-5 L 0,0 L 5,5 Z" fill-opacity="1" id="ygc98_16"/><path fill="rgb(96,125,139)" stroke="none" d="M 5,-5 L 0,0 L 5,5 Z" fill-opacity="1" id="ygc98_17"/><path fill="rgb(96,125,139)" stroke="none" d="M 5,-5 L 0,0 L 5,5 Z" fill-opacity="1" id="ygc98_18"/><path fill="rgb(96,125,139)" stroke="none" d="M 5,-5 L 0,0 L 5,5 Z" fill-opacity="1" id="ygc98_19"/><path fill="rgb(96,125,139)" stroke="none" d="M 5,-5 L 0,0 L 5,5 Z" fill-opacity="1" id="ygc98_20"/><path fill="rgb(96,125,139)" stroke="none" d="M 5,-5 L 0,0 L 5,5 Z" fill-opacity="1" id="ygc98_21"/></defs></svg>