<?xml version="1.0" encoding="utf-8" standalone="no"?>
<!DOCTYPE svg PUBLIC "-//W3C//DTD SVG 1.1//EN"
  "http://www.w3.org/Graphics/SVG/1.1/DTD/svg11.dtd">
<svg xmlns:xlink="http://www.w3.org/1999/xlink" width="576pt" height="432pt" viewBox="0 0 576 432" xmlns="http://www.w3.org/2000/svg" version="1.1">
 <metadata>
  <rdf:RDF xmlns:dc="http://purl.org/dc/elements/1.1/" xmlns:cc="http://creativecommons.org/ns#" xmlns:rdf="http://www.w3.org/1999/02/22-rdf-syntax-ns#">
   <cc:Work>
    <dc:type rdf:resource="http://purl.org/dc/dcmitype/StillImage"/>
    <dc:date>2024-06-20T15:45:40.782098</dc:date>
    <dc:format>image/svg+xml</dc:format>
    <dc:creator>
     <cc:Agent>
      <dc:title>Matplotlib v3.8.3, https://matplotlib.org/</dc:title>
     </cc:Agent>
    </dc:creator>
   </cc:Work>
  </rdf:RDF>
 </metadata>
 <defs>
  <style type="text/css">*{stroke-linejoin: round; stroke-linecap: butt}</style>
 </defs>
 <g id="figure_1">
  <g id="patch_1">
   <path d="M 0 432 
L 576 432 
L 576 0 
L 0 0 
z
" style="fill: #ffffff"/>
  </g>
  <g id="axes_1">
   <g id="patch_2">
    <path d="M 86.4 367.2 
L 518.4 367.2 
L 518.4 64.8 
L 86.4 64.8 
z
" style="fill: #ffffff"/>
   </g>
   <g id="patch_3">
    <path d="M 106.036364 367.2 
L 109.963636 367.2 
L 109.963636 366.84 
L 106.036364 366.84 
z
" clip-path="url(#p1e2a0badf8)" style="fill: #1db9d8"/>
   </g>
   <g id="patch_4">
    <path d="M 109.963636 367.2 
L 113.890909 367.2 
L 113.890909 367.2 
L 109.963636 367.2 
z
" clip-path="url(#p1e2a0badf8)" style="fill: #1db9d8"/>
   </g>
   <g id="patch_5">
    <path d="M 113.890909 367.2 
L 117.818182 367.2 
L 117.818182 366.48 
L 113.890909 366.48 
z
" clip-path="url(#p1e2a0badf8)" style="fill: #1db9d8"/>
   </g>
   <g id="patch_6">
    <path d="M 117.818182 367.2 
L 121.745455 367.2 
L 121.745455 365.4 
L 117.818182 365.4 
z
" clip-path="url(#p1e2a0badf8)" style="fill: #1db9d8"/>
   </g>
   <g id="patch_7">
    <path d="M 121.745455 367.2 
L 125.672727 367.2 
L 125.672727 365.76 
L 121.745455 365.76 
z
" clip-path="url(#p1e2a0badf8)" style="fill: #1db9d8"/>
   </g>
   <g id="patch_8">
    <path d="M 125.672727 367.2 
L 129.6 367.2 
L 129.6 364.68 
L 125.672727 364.68 
z
" clip-path="url(#p1e2a0badf8)" style="fill: #1db9d8"/>
   </g>
   <g id="patch_9">
    <path d="M 129.6 367.2 
L 133.527273 367.2 
L 133.527273 359.28 
L 129.6 359.28 
z
" clip-path="url(#p1e2a0badf8)" style="fill: #1db9d8"/>
   </g>
   <g id="patch_10">
    <path d="M 133.527273 367.2 
L 137.454545 367.2 
L 137.454545 347.04 
L 133.527273 347.04 
z
" clip-path="url(#p1e2a0badf8)" style="fill: #1db9d8"/>
   </g>
   <g id="patch_11">
    <path d="M 137.454545 367.2 
L 141.381818 367.2 
L 141.381818 79.2 
L 137.454545 79.2 
z
" clip-path="url(#p1e2a0badf8)" style="fill: #1db9d8"/>
   </g>
   <g id="patch_12">
    <path d="M 141.381818 367.2 
L 145.309091 367.2 
L 145.309091 297 
L 141.381818 297 
z
" clip-path="url(#p1e2a0badf8)" style="fill: #1db9d8"/>
   </g>
   <g id="patch_13">
    <path d="M 145.309091 367.2 
L 149.236364 367.2 
L 149.236364 325.44 
L 145.309091 325.44 
z
" clip-path="url(#p1e2a0badf8)" style="fill: #1db9d8"/>
   </g>
   <g id="patch_14">
    <path d="M 149.236364 367.2 
L 153.163636 367.2 
L 153.163636 326.16 
L 149.236364 326.16 
z
" clip-path="url(#p1e2a0badf8)" style="fill: #1db9d8"/>
   </g>
   <g id="patch_15">
    <path d="M 153.163636 367.2 
L 157.090909 367.2 
L 157.090909 336.24 
L 153.163636 336.24 
z
" clip-path="url(#p1e2a0badf8)" style="fill: #1db9d8"/>
   </g>
   <g id="patch_16">
    <path d="M 157.090909 367.2 
L 161.018182 367.2 
L 161.018182 344.16 
L 157.090909 344.16 
z
" clip-path="url(#p1e2a0badf8)" style="fill: #1db9d8"/>
   </g>
   <g id="patch_17">
    <path d="M 161.018182 367.2 
L 164.945455 367.2 
L 164.945455 346.32 
L 161.018182 346.32 
z
" clip-path="url(#p1e2a0badf8)" style="fill: #1db9d8"/>
   </g>
   <g id="patch_18">
    <path d="M 164.945455 367.2 
L 168.872727 367.2 
L 168.872727 349.56 
L 164.945455 349.56 
z
" clip-path="url(#p1e2a0badf8)" style="fill: #1db9d8"/>
   </g>
   <g id="patch_19">
    <path d="M 168.872727 367.2 
L 172.8 367.2 
L 172.8 348.84 
L 168.872727 348.84 
z
" clip-path="url(#p1e2a0badf8)" style="fill: #1db9d8"/>
   </g>
   <g id="patch_20">
    <path d="M 172.8 367.2 
L 176.727273 367.2 
L 176.727273 351.36 
L 172.8 351.36 
z
" clip-path="url(#p1e2a0badf8)" style="fill: #1db9d8"/>
   </g>
   <g id="patch_21">
    <path d="M 176.727273 367.2 
L 180.654545 367.2 
L 180.654545 352.8 
L 176.727273 352.8 
z
" clip-path="url(#p1e2a0badf8)" style="fill: #1db9d8"/>
   </g>
   <g id="patch_22">
    <path d="M 180.654545 367.2 
L 184.581818 367.2 
L 184.581818 356.76 
L 180.654545 356.76 
z
" clip-path="url(#p1e2a0badf8)" style="fill: #1db9d8"/>
   </g>
   <g id="patch_23">
    <path d="M 184.581818 367.2 
L 188.509091 367.2 
L 188.509091 357.84 
L 184.581818 357.84 
z
" clip-path="url(#p1e2a0badf8)" style="fill: #1db9d8"/>
   </g>
   <g id="patch_24">
    <path d="M 188.509091 367.2 
L 192.436364 367.2 
L 192.436364 359.28 
L 188.509091 359.28 
z
" clip-path="url(#p1e2a0badf8)" style="fill: #1db9d8"/>
   </g>
   <g id="patch_25">
    <path d="M 192.436364 367.2 
L 196.363636 367.2 
L 196.363636 360 
L 192.436364 360 
z
" clip-path="url(#p1e2a0badf8)" style="fill: #1db9d8"/>
   </g>
   <g id="patch_26">
    <path d="M 196.363636 367.2 
L 200.290909 367.2 
L 200.290909 361.08 
L 196.363636 361.08 
z
" clip-path="url(#p1e2a0badf8)" style="fill: #1db9d8"/>
   </g>
   <g id="patch_27">
    <path d="M 200.290909 367.2 
L 204.218182 367.2 
L 204.218182 362.16 
L 200.290909 362.16 
z
" clip-path="url(#p1e2a0badf8)" style="fill: #1db9d8"/>
   </g>
   <g id="patch_28">
    <path d="M 204.218182 367.2 
L 208.145455 367.2 
L 208.145455 362.16 
L 204.218182 362.16 
z
" clip-path="url(#p1e2a0badf8)" style="fill: #1db9d8"/>
   </g>
   <g id="patch_29">
    <path d="M 208.145455 367.2 
L 212.072727 367.2 
L 212.072727 361.44 
L 208.145455 361.44 
z
" clip-path="url(#p1e2a0badf8)" style="fill: #1db9d8"/>
   </g>
   <g id="patch_30">
    <path d="M 212.072727 367.2 
L 216 367.2 
L 216 364.32 
L 212.072727 364.32 
z
" clip-path="url(#p1e2a0badf8)" style="fill: #1db9d8"/>
   </g>
   <g id="patch_31">
    <path d="M 216 367.2 
L 219.927273 367.2 
L 219.927273 363.24 
L 216 363.24 
z
" clip-path="url(#p1e2a0badf8)" style="fill: #1db9d8"/>
   </g>
   <g id="patch_32">
    <path d="M 219.927273 367.2 
L 223.854545 367.2 
L 223.854545 363.6 
L 219.927273 363.6 
z
" clip-path="url(#p1e2a0badf8)" style="fill: #1db9d8"/>
   </g>
   <g id="patch_33">
    <path d="M 223.854545 367.2 
L 227.781818 367.2 
L 227.781818 364.68 
L 223.854545 364.68 
z
" clip-path="url(#p1e2a0badf8)" style="fill: #1db9d8"/>
   </g>
   <g id="patch_34">
    <path d="M 227.781818 367.2 
L 231.709091 367.2 
L 231.709091 363.24 
L 227.781818 363.24 
z
" clip-path="url(#p1e2a0badf8)" style="fill: #1db9d8"/>
   </g>
   <g id="patch_35">
    <path d="M 231.709091 367.2 
L 235.636364 367.2 
L 235.636364 365.04 
L 231.709091 365.04 
z
" clip-path="url(#p1e2a0badf8)" style="fill: #1db9d8"/>
   </g>
   <g id="patch_36">
    <path d="M 235.636364 367.2 
L 239.563636 367.2 
L 239.563636 365.04 
L 235.636364 365.04 
z
" clip-path="url(#p1e2a0badf8)" style="fill: #1db9d8"/>
   </g>
   <g id="patch_37">
    <path d="M 239.563636 367.2 
L 243.490909 367.2 
L 243.490909 365.76 
L 239.563636 365.76 
z
" clip-path="url(#p1e2a0badf8)" style="fill: #1db9d8"/>
   </g>
   <g id="patch_38">
    <path d="M 243.490909 367.2 
L 247.418182 367.2 
L 247.418182 364.68 
L 243.490909 364.68 
z
" clip-path="url(#p1e2a0badf8)" style="fill: #1db9d8"/>
   </g>
   <g id="patch_39">
    <path d="M 247.418182 367.2 
L 251.345455 367.2 
L 251.345455 365.04 
L 247.418182 365.04 
z
" clip-path="url(#p1e2a0badf8)" style="fill: #1db9d8"/>
   </g>
   <g id="patch_40">
    <path d="M 251.345455 367.2 
L 255.272727 367.2 
L 255.272727 364.32 
L 251.345455 364.32 
z
" clip-path="url(#p1e2a0badf8)" style="fill: #1db9d8"/>
   </g>
   <g id="patch_41">
    <path d="M 255.272727 367.2 
L 259.2 367.2 
L 259.2 364.68 
L 255.272727 364.68 
z
" clip-path="url(#p1e2a0badf8)" style="fill: #1db9d8"/>
   </g>
   <g id="patch_42">
    <path d="M 259.2 367.2 
L 263.127273 367.2 
L 263.127273 366.12 
L 259.2 366.12 
z
" clip-path="url(#p1e2a0badf8)" style="fill: #1db9d8"/>
   </g>
   <g id="patch_43">
    <path d="M 263.127273 367.2 
L 267.054545 367.2 
L 267.054545 366.84 
L 263.127273 366.84 
z
" clip-path="url(#p1e2a0badf8)" style="fill: #1db9d8"/>
   </g>
   <g id="patch_44">
    <path d="M 267.054545 367.2 
L 270.981818 367.2 
L 270.981818 366.12 
L 267.054545 366.12 
z
" clip-path="url(#p1e2a0badf8)" style="fill: #1db9d8"/>
   </g>
   <g id="patch_45">
    <path d="M 270.981818 367.2 
L 274.909091 367.2 
L 274.909091 366.48 
L 270.981818 366.48 
z
" clip-path="url(#p1e2a0badf8)" style="fill: #1db9d8"/>
   </g>
   <g id="patch_46">
    <path d="M 274.909091 367.2 
L 278.836364 367.2 
L 278.836364 365.76 
L 274.909091 365.76 
z
" clip-path="url(#p1e2a0badf8)" style="fill: #1db9d8"/>
   </g>
   <g id="patch_47">
    <path d="M 278.836364 367.2 
L 282.763636 367.2 
L 282.763636 366.84 
L 278.836364 366.84 
z
" clip-path="url(#p1e2a0badf8)" style="fill: #1db9d8"/>
   </g>
   <g id="patch_48">
    <path d="M 282.763636 367.2 
L 286.690909 367.2 
L 286.690909 366.84 
L 282.763636 366.84 
z
" clip-path="url(#p1e2a0badf8)" style="fill: #1db9d8"/>
   </g>
   <g id="patch_49">
    <path d="M 286.690909 367.2 
L 290.618182 367.2 
L 290.618182 366.48 
L 286.690909 366.48 
z
" clip-path="url(#p1e2a0badf8)" style="fill: #1db9d8"/>
   </g>
   <g id="patch_50">
    <path d="M 290.618182 367.2 
L 294.545455 367.2 
L 294.545455 366.12 
L 290.618182 366.12 
z
" clip-path="url(#p1e2a0badf8)" style="fill: #1db9d8"/>
   </g>
   <g id="patch_51">
    <path d="M 294.545455 367.2 
L 298.472727 367.2 
L 298.472727 367.2 
L 294.545455 367.2 
z
" clip-path="url(#p1e2a0badf8)" style="fill: #1db9d8"/>
   </g>
   <g id="patch_52">
    <path d="M 298.472727 367.2 
L 302.4 367.2 
L 302.4 366.84 
L 298.472727 366.84 
z
" clip-path="url(#p1e2a0badf8)" style="fill: #1db9d8"/>
   </g>
   <g id="patch_53">
    <path d="M 302.4 367.2 
L 306.327273 367.2 
L 306.327273 367.2 
L 302.4 367.2 
z
" clip-path="url(#p1e2a0badf8)" style="fill: #1db9d8"/>
   </g>
   <g id="patch_54">
    <path d="M 306.327273 367.2 
L 310.254545 367.2 
L 310.254545 366.84 
L 306.327273 366.84 
z
" clip-path="url(#p1e2a0badf8)" style="fill: #1db9d8"/>
   </g>
   <g id="patch_55">
    <path d="M 310.254545 367.2 
L 314.181818 367.2 
L 314.181818 365.76 
L 310.254545 365.76 
z
" clip-path="url(#p1e2a0badf8)" style="fill: #1db9d8"/>
   </g>
   <g id="patch_56">
    <path d="M 314.181818 367.2 
L 318.109091 367.2 
L 318.109091 366.48 
L 314.181818 366.48 
z
" clip-path="url(#p1e2a0badf8)" style="fill: #1db9d8"/>
   </g>
   <g id="patch_57">
    <path d="M 318.109091 367.2 
L 322.036364 367.2 
L 322.036364 367.2 
L 318.109091 367.2 
z
" clip-path="url(#p1e2a0badf8)" style="fill: #1db9d8"/>
   </g>
   <g id="patch_58">
    <path d="M 322.036364 367.2 
L 325.963636 367.2 
L 325.963636 367.2 
L 322.036364 367.2 
z
" clip-path="url(#p1e2a0badf8)" style="fill: #1db9d8"/>
   </g>
   <g id="patch_59">
    <path d="M 325.963636 367.2 
L 329.890909 367.2 
L 329.890909 366.84 
L 325.963636 366.84 
z
" clip-path="url(#p1e2a0badf8)" style="fill: #1db9d8"/>
   </g>
   <g id="patch_60">
    <path d="M 329.890909 367.2 
L 333.818182 367.2 
L 333.818182 367.2 
L 329.890909 367.2 
z
" clip-path="url(#p1e2a0badf8)" style="fill: #1db9d8"/>
   </g>
   <g id="patch_61">
    <path d="M 333.818182 367.2 
L 337.745455 367.2 
L 337.745455 367.2 
L 333.818182 367.2 
z
" clip-path="url(#p1e2a0badf8)" style="fill: #1db9d8"/>
   </g>
   <g id="patch_62">
    <path d="M 337.745455 367.2 
L 341.672727 367.2 
L 341.672727 367.2 
L 337.745455 367.2 
z
" clip-path="url(#p1e2a0badf8)" style="fill: #1db9d8"/>
   </g>
   <g id="patch_63">
    <path d="M 341.672727 367.2 
L 345.6 367.2 
L 345.6 366.84 
L 341.672727 366.84 
z
" clip-path="url(#p1e2a0badf8)" style="fill: #1db9d8"/>
   </g>
   <g id="patch_64">
    <path d="M 345.6 367.2 
L 349.527273 367.2 
L 349.527273 367.2 
L 345.6 367.2 
z
" clip-path="url(#p1e2a0badf8)" style="fill: #1db9d8"/>
   </g>
   <g id="patch_65">
    <path d="M 349.527273 367.2 
L 353.454545 367.2 
L 353.454545 367.2 
L 349.527273 367.2 
z
" clip-path="url(#p1e2a0badf8)" style="fill: #1db9d8"/>
   </g>
   <g id="patch_66">
    <path d="M 353.454545 367.2 
L 357.381818 367.2 
L 357.381818 367.2 
L 353.454545 367.2 
z
" clip-path="url(#p1e2a0badf8)" style="fill: #1db9d8"/>
   </g>
   <g id="patch_67">
    <path d="M 357.381818 367.2 
L 361.309091 367.2 
L 361.309091 367.2 
L 357.381818 367.2 
z
" clip-path="url(#p1e2a0badf8)" style="fill: #1db9d8"/>
   </g>
   <g id="patch_68">
    <path d="M 361.309091 367.2 
L 365.236364 367.2 
L 365.236364 367.2 
L 361.309091 367.2 
z
" clip-path="url(#p1e2a0badf8)" style="fill: #1db9d8"/>
   </g>
   <g id="patch_69">
    <path d="M 365.236364 367.2 
L 369.163636 367.2 
L 369.163636 367.2 
L 365.236364 367.2 
z
" clip-path="url(#p1e2a0badf8)" style="fill: #1db9d8"/>
   </g>
   <g id="patch_70">
    <path d="M 369.163636 367.2 
L 373.090909 367.2 
L 373.090909 366.84 
L 369.163636 366.84 
z
" clip-path="url(#p1e2a0badf8)" style="fill: #1db9d8"/>
   </g>
   <g id="patch_71">
    <path d="M 373.090909 367.2 
L 377.018182 367.2 
L 377.018182 366.84 
L 373.090909 366.84 
z
" clip-path="url(#p1e2a0badf8)" style="fill: #1db9d8"/>
   </g>
   <g id="patch_72">
    <path d="M 377.018182 367.2 
L 380.945455 367.2 
L 380.945455 367.2 
L 377.018182 367.2 
z
" clip-path="url(#p1e2a0badf8)" style="fill: #1db9d8"/>
   </g>
   <g id="patch_73">
    <path d="M 380.945455 367.2 
L 384.872727 367.2 
L 384.872727 366.84 
L 380.945455 366.84 
z
" clip-path="url(#p1e2a0badf8)" style="fill: #1db9d8"/>
   </g>
   <g id="patch_74">
    <path d="M 384.872727 367.2 
L 388.8 367.2 
L 388.8 366.84 
L 384.872727 366.84 
z
" clip-path="url(#p1e2a0badf8)" style="fill: #1db9d8"/>
   </g>
   <g id="patch_75">
    <path d="M 388.8 367.2 
L 392.727273 367.2 
L 392.727273 367.2 
L 388.8 367.2 
z
" clip-path="url(#p1e2a0badf8)" style="fill: #1db9d8"/>
   </g>
   <g id="patch_76">
    <path d="M 392.727273 367.2 
L 396.654545 367.2 
L 396.654545 367.2 
L 392.727273 367.2 
z
" clip-path="url(#p1e2a0badf8)" style="fill: #1db9d8"/>
   </g>
   <g id="patch_77">
    <path d="M 396.654545 367.2 
L 400.581818 367.2 
L 400.581818 367.2 
L 396.654545 367.2 
z
" clip-path="url(#p1e2a0badf8)" style="fill: #1db9d8"/>
   </g>
   <g id="patch_78">
    <path d="M 400.581818 367.2 
L 404.509091 367.2 
L 404.509091 367.2 
L 400.581818 367.2 
z
" clip-path="url(#p1e2a0badf8)" style="fill: #1db9d8"/>
   </g>
   <g id="patch_79">
    <path d="M 404.509091 367.2 
L 408.436364 367.2 
L 408.436364 367.2 
L 404.509091 367.2 
z
" clip-path="url(#p1e2a0badf8)" style="fill: #1db9d8"/>
   </g>
   <g id="patch_80">
    <path d="M 408.436364 367.2 
L 412.363636 367.2 
L 412.363636 367.2 
L 408.436364 367.2 
z
" clip-path="url(#p1e2a0badf8)" style="fill: #1db9d8"/>
   </g>
   <g id="patch_81">
    <path d="M 412.363636 367.2 
L 416.290909 367.2 
L 416.290909 366.84 
L 412.363636 366.84 
z
" clip-path="url(#p1e2a0badf8)" style="fill: #1db9d8"/>
   </g>
   <g id="patch_82">
    <path d="M 416.290909 367.2 
L 420.218182 367.2 
L 420.218182 367.2 
L 416.290909 367.2 
z
" clip-path="url(#p1e2a0badf8)" style="fill: #1db9d8"/>
   </g>
   <g id="patch_83">
    <path d="M 420.218182 367.2 
L 424.145455 367.2 
L 424.145455 367.2 
L 420.218182 367.2 
z
" clip-path="url(#p1e2a0badf8)" style="fill: #1db9d8"/>
   </g>
   <g id="patch_84">
    <path d="M 424.145455 367.2 
L 428.072727 367.2 
L 428.072727 367.2 
L 424.145455 367.2 
z
" clip-path="url(#p1e2a0badf8)" style="fill: #1db9d8"/>
   </g>
   <g id="patch_85">
    <path d="M 428.072727 367.2 
L 432 367.2 
L 432 367.2 
L 428.072727 367.2 
z
" clip-path="url(#p1e2a0badf8)" style="fill: #1db9d8"/>
   </g>
   <g id="patch_86">
    <path d="M 432 367.2 
L 435.927273 367.2 
L 435.927273 367.2 
L 432 367.2 
z
" clip-path="url(#p1e2a0badf8)" style="fill: #1db9d8"/>
   </g>
   <g id="patch_87">
    <path d="M 435.927273 367.2 
L 439.854545 367.2 
L 439.854545 367.2 
L 435.927273 367.2 
z
" clip-path="url(#p1e2a0badf8)" style="fill: #1db9d8"/>
   </g>
   <g id="patch_88">
    <path d="M 439.854545 367.2 
L 443.781818 367.2 
L 443.781818 367.2 
L 439.854545 367.2 
z
" clip-path="url(#p1e2a0badf8)" style="fill: #1db9d8"/>
   </g>
   <g id="patch_89">
    <path d="M 443.781818 367.2 
L 447.709091 367.2 
L 447.709091 367.2 
L 443.781818 367.2 
z
" clip-path="url(#p1e2a0badf8)" style="fill: #1db9d8"/>
   </g>
   <g id="patch_90">
    <path d="M 447.709091 367.2 
L 451.636364 367.2 
L 451.636364 367.2 
L 447.709091 367.2 
z
" clip-path="url(#p1e2a0badf8)" style="fill: #1db9d8"/>
   </g>
   <g id="patch_91">
    <path d="M 451.636364 367.2 
L 455.563636 367.2 
L 455.563636 367.2 
L 451.636364 367.2 
z
" clip-path="url(#p1e2a0badf8)" style="fill: #1db9d8"/>
   </g>
   <g id="patch_92">
    <path d="M 455.563636 367.2 
L 459.490909 367.2 
L 459.490909 367.2 
L 455.563636 367.2 
z
" clip-path="url(#p1e2a0badf8)" style="fill: #1db9d8"/>
   </g>
   <g id="patch_93">
    <path d="M 459.490909 367.2 
L 463.418182 367.2 
L 463.418182 367.2 
L 459.490909 367.2 
z
" clip-path="url(#p1e2a0badf8)" style="fill: #1db9d8"/>
   </g>
   <g id="patch_94">
    <path d="M 463.418182 367.2 
L 467.345455 367.2 
L 467.345455 366.84 
L 463.418182 366.84 
z
" clip-path="url(#p1e2a0badf8)" style="fill: #1db9d8"/>
   </g>
   <g id="patch_95">
    <path d="M 467.345455 367.2 
L 471.272727 367.2 
L 471.272727 367.2 
L 467.345455 367.2 
z
" clip-path="url(#p1e2a0badf8)" style="fill: #1db9d8"/>
   </g>
   <g id="patch_96">
    <path d="M 471.272727 367.2 
L 475.2 367.2 
L 475.2 367.2 
L 471.272727 367.2 
z
" clip-path="url(#p1e2a0badf8)" style="fill: #1db9d8"/>
   </g>
   <g id="patch_97">
    <path d="M 475.2 367.2 
L 479.127273 367.2 
L 479.127273 367.2 
L 475.2 367.2 
z
" clip-path="url(#p1e2a0badf8)" style="fill: #1db9d8"/>
   </g>
   <g id="patch_98">
    <path d="M 479.127273 367.2 
L 483.054545 367.2 
L 483.054545 367.2 
L 479.127273 367.2 
z
" clip-path="url(#p1e2a0badf8)" style="fill: #1db9d8"/>
   </g>
   <g id="patch_99">
    <path d="M 483.054545 367.2 
L 486.981818 367.2 
L 486.981818 367.2 
L 483.054545 367.2 
z
" clip-path="url(#p1e2a0badf8)" style="fill: #1db9d8"/>
   </g>
   <g id="patch_100">
    <path d="M 486.981818 367.2 
L 490.909091 367.2 
L 490.909091 367.2 
L 486.981818 367.2 
z
" clip-path="url(#p1e2a0badf8)" style="fill: #1db9d8"/>
   </g>
   <g id="patch_101">
    <path d="M 490.909091 367.2 
L 494.836364 367.2 
L 494.836364 367.2 
L 490.909091 367.2 
z
" clip-path="url(#p1e2a0badf8)" style="fill: #1db9d8"/>
   </g>
   <g id="patch_102">
    <path d="M 494.836364 367.2 
L 498.763636 367.2 
L 498.763636 366.84 
L 494.836364 366.84 
z
" clip-path="url(#p1e2a0badf8)" style="fill: #1db9d8"/>
   </g>
   <g id="matplotlib.axis_1">
    <g id="xtick_1">
     <g id="line2d_1">
      <defs>
       <path id="md28c7da922" d="M 0 0 
L 0 3.5 
" style="stroke: #000000; stroke-width: 0.8"/>
      </defs>
      <g>
       <use xlink:href="#md28c7da922" x="139.468998" y="367.2" style="stroke: #000000; stroke-width: 0.8"/>
      </g>
     </g>
     <g id="text_1">
      <!-- 0.0 -->
      <g transform="translate(131.517435 381.798437) scale(0.1 -0.1)">
       <defs>
        <path id="DejaVuSans-30" d="M 2034 4250 
Q 1547 4250 1301 3770 
Q 1056 3291 1056 2328 
Q 1056 1369 1301 889 
Q 1547 409 2034 409 
Q 2525 409 2770 889 
Q 3016 1369 3016 2328 
Q 3016 3291 2770 3770 
Q 2525 4250 2034 4250 
z
M 2034 4750 
Q 2819 4750 3233 4129 
Q 3647 3509 3647 2328 
Q 3647 1150 3233 529 
Q 2819 -91 2034 -91 
Q 1250 -91 836 529 
Q 422 1150 422 2328 
Q 422 3509 836 4129 
Q 1250 4750 2034 4750 
z
" transform="scale(0.015625)"/>
        <path id="DejaVuSans-2e" d="M 684 794 
L 1344 794 
L 1344 0 
L 684 0 
L 684 794 
z
" transform="scale(0.015625)"/>
       </defs>
       <use xlink:href="#DejaVuSans-30"/>
       <use xlink:href="#DejaVuSans-2e" x="63.623047"/>
       <use xlink:href="#DejaVuSans-30" x="95.410156"/>
      </g>
     </g>
    </g>
    <g id="xtick_2">
     <g id="line2d_2">
      <g>
       <use xlink:href="#md28c7da922" x="206.334266" y="367.2" style="stroke: #000000; stroke-width: 0.8"/>
      </g>
     </g>
     <g id="text_2">
      <!-- 0.5 -->
      <g transform="translate(198.382704 381.798437) scale(0.1 -0.1)">
       <defs>
        <path id="DejaVuSans-35" d="M 691 4666 
L 3169 4666 
L 3169 4134 
L 1269 4134 
L 1269 2991 
Q 1406 3038 1543 3061 
Q 1681 3084 1819 3084 
Q 2600 3084 3056 2656 
Q 3513 2228 3513 1497 
Q 3513 744 3044 326 
Q 2575 -91 1722 -91 
Q 1428 -91 1123 -41 
Q 819 9 494 109 
L 494 744 
Q 775 591 1075 516 
Q 1375 441 1709 441 
Q 2250 441 2565 725 
Q 2881 1009 2881 1497 
Q 2881 1984 2565 2268 
Q 2250 2553 1709 2553 
Q 1456 2553 1204 2497 
Q 953 2441 691 2322 
L 691 4666 
z
" transform="scale(0.015625)"/>
       </defs>
       <use xlink:href="#DejaVuSans-30"/>
       <use xlink:href="#DejaVuSans-2e" x="63.623047"/>
       <use xlink:href="#DejaVuSans-35" x="95.410156"/>
      </g>
     </g>
    </g>
    <g id="xtick_3">
     <g id="line2d_3">
      <g>
       <use xlink:href="#md28c7da922" x="273.199534" y="367.2" style="stroke: #000000; stroke-width: 0.8"/>
      </g>
     </g>
     <g id="text_3">
      <!-- 1.0 -->
      <g transform="translate(265.247972 381.798437) scale(0.1 -0.1)">
       <defs>
        <path id="DejaVuSans-31" d="M 794 531 
L 1825 531 
L 1825 4091 
L 703 3866 
L 703 4441 
L 1819 4666 
L 2450 4666 
L 2450 531 
L 3481 531 
L 3481 0 
L 794 0 
L 794 531 
z
" transform="scale(0.015625)"/>
       </defs>
       <use xlink:href="#DejaVuSans-31"/>
       <use xlink:href="#DejaVuSans-2e" x="63.623047"/>
       <use xlink:href="#DejaVuSans-30" x="95.410156"/>
      </g>
     </g>
    </g>
    <g id="xtick_4">
     <g id="line2d_4">
      <g>
       <use xlink:href="#md28c7da922" x="340.064803" y="367.2" style="stroke: #000000; stroke-width: 0.8"/>
      </g>
     </g>
     <g id="text_4">
      <!-- 1.5 -->
      <g transform="translate(332.11324 381.798437) scale(0.1 -0.1)">
       <use xlink:href="#DejaVuSans-31"/>
       <use xlink:href="#DejaVuSans-2e" x="63.623047"/>
       <use xlink:href="#DejaVuSans-35" x="95.410156"/>
      </g>
     </g>
    </g>
    <g id="xtick_5">
     <g id="line2d_5">
      <g>
       <use xlink:href="#md28c7da922" x="406.930071" y="367.2" style="stroke: #000000; stroke-width: 0.8"/>
      </g>
     </g>
     <g id="text_5">
      <!-- 2.0 -->
      <g transform="translate(398.978509 381.798437) scale(0.1 -0.1)">
       <defs>
        <path id="DejaVuSans-32" d="M 1228 531 
L 3431 531 
L 3431 0 
L 469 0 
L 469 531 
Q 828 903 1448 1529 
Q 2069 2156 2228 2338 
Q 2531 2678 2651 2914 
Q 2772 3150 2772 3378 
Q 2772 3750 2511 3984 
Q 2250 4219 1831 4219 
Q 1534 4219 1204 4116 
Q 875 4013 500 3803 
L 500 4441 
Q 881 4594 1212 4672 
Q 1544 4750 1819 4750 
Q 2544 4750 2975 4387 
Q 3406 4025 3406 3419 
Q 3406 3131 3298 2873 
Q 3191 2616 2906 2266 
Q 2828 2175 2409 1742 
Q 1991 1309 1228 531 
z
" transform="scale(0.015625)"/>
       </defs>
       <use xlink:href="#DejaVuSans-32"/>
       <use xlink:href="#DejaVuSans-2e" x="63.623047"/>
       <use xlink:href="#DejaVuSans-30" x="95.410156"/>
      </g>
     </g>
    </g>
    <g id="xtick_6">
     <g id="line2d_6">
      <g>
       <use xlink:href="#md28c7da922" x="473.795339" y="367.2" style="stroke: #000000; stroke-width: 0.8"/>
      </g>
     </g>
     <g id="text_6">
      <!-- 2.5 -->
      <g transform="translate(465.843777 381.798437) scale(0.1 -0.1)">
       <use xlink:href="#DejaVuSans-32"/>
       <use xlink:href="#DejaVuSans-2e" x="63.623047"/>
       <use xlink:href="#DejaVuSans-35" x="95.410156"/>
      </g>
     </g>
    </g>
    <g id="text_7">
     <!-- Net Revenue -->
     <g transform="translate(270.257812 395.476562) scale(0.1 -0.1)">
      <defs>
       <path id="DejaVuSans-4e" d="M 628 4666 
L 1478 4666 
L 3547 763 
L 3547 4666 
L 4159 4666 
L 4159 0 
L 3309 0 
L 1241 3903 
L 1241 0 
L 628 0 
L 628 4666 
z
" transform="scale(0.015625)"/>
       <path id="DejaVuSans-65" d="M 3597 1894 
L 3597 1613 
L 953 1613 
Q 991 1019 1311 708 
Q 1631 397 2203 397 
Q 2534 397 2845 478 
Q 3156 559 3463 722 
L 3463 178 
Q 3153 47 2828 -22 
Q 2503 -91 2169 -91 
Q 1331 -91 842 396 
Q 353 884 353 1716 
Q 353 2575 817 3079 
Q 1281 3584 2069 3584 
Q 2775 3584 3186 3129 
Q 3597 2675 3597 1894 
z
M 3022 2063 
Q 3016 2534 2758 2815 
Q 2500 3097 2075 3097 
Q 1594 3097 1305 2825 
Q 1016 2553 972 2059 
L 3022 2063 
z
" transform="scale(0.015625)"/>
       <path id="DejaVuSans-74" d="M 1172 4494 
L 1172 3500 
L 2356 3500 
L 2356 3053 
L 1172 3053 
L 1172 1153 
Q 1172 725 1289 603 
Q 1406 481 1766 481 
L 2356 481 
L 2356 0 
L 1766 0 
Q 1100 0 847 248 
Q 594 497 594 1153 
L 594 3053 
L 172 3053 
L 172 3500 
L 594 3500 
L 594 4494 
L 1172 4494 
z
" transform="scale(0.015625)"/>
       <path id="DejaVuSans-20" transform="scale(0.015625)"/>
       <path id="DejaVuSans-52" d="M 2841 2188 
Q 3044 2119 3236 1894 
Q 3428 1669 3622 1275 
L 4263 0 
L 3584 0 
L 2988 1197 
Q 2756 1666 2539 1819 
Q 2322 1972 1947 1972 
L 1259 1972 
L 1259 0 
L 628 0 
L 628 4666 
L 2053 4666 
Q 2853 4666 3247 4331 
Q 3641 3997 3641 3322 
Q 3641 2881 3436 2590 
Q 3231 2300 2841 2188 
z
M 1259 4147 
L 1259 2491 
L 2053 2491 
Q 2509 2491 2742 2702 
Q 2975 2913 2975 3322 
Q 2975 3731 2742 3939 
Q 2509 4147 2053 4147 
L 1259 4147 
z
" transform="scale(0.015625)"/>
       <path id="DejaVuSans-76" d="M 191 3500 
L 800 3500 
L 1894 563 
L 2988 3500 
L 3597 3500 
L 2284 0 
L 1503 0 
L 191 3500 
z
" transform="scale(0.015625)"/>
       <path id="DejaVuSans-6e" d="M 3513 2113 
L 3513 0 
L 2938 0 
L 2938 2094 
Q 2938 2591 2744 2837 
Q 2550 3084 2163 3084 
Q 1697 3084 1428 2787 
Q 1159 2491 1159 1978 
L 1159 0 
L 581 0 
L 581 3500 
L 1159 3500 
L 1159 2956 
Q 1366 3272 1645 3428 
Q 1925 3584 2291 3584 
Q 2894 3584 3203 3211 
Q 3513 2838 3513 2113 
z
" transform="scale(0.015625)"/>
       <path id="DejaVuSans-75" d="M 544 1381 
L 544 3500 
L 1119 3500 
L 1119 1403 
Q 1119 906 1312 657 
Q 1506 409 1894 409 
Q 2359 409 2629 706 
Q 2900 1003 2900 1516 
L 2900 3500 
L 3475 3500 
L 3475 0 
L 2900 0 
L 2900 538 
Q 2691 219 2414 64 
Q 2138 -91 1772 -91 
Q 1169 -91 856 284 
Q 544 659 544 1381 
z
M 1991 3584 
L 1991 3584 
z
" transform="scale(0.015625)"/>
      </defs>
      <use xlink:href="#DejaVuSans-4e"/>
      <use xlink:href="#DejaVuSans-65" x="74.804688"/>
      <use xlink:href="#DejaVuSans-74" x="136.328125"/>
      <use xlink:href="#DejaVuSans-20" x="175.537109"/>
      <use xlink:href="#DejaVuSans-52" x="207.324219"/>
      <use xlink:href="#DejaVuSans-65" x="272.306641"/>
      <use xlink:href="#DejaVuSans-76" x="333.830078"/>
      <use xlink:href="#DejaVuSans-65" x="393.009766"/>
      <use xlink:href="#DejaVuSans-6e" x="454.533203"/>
      <use xlink:href="#DejaVuSans-75" x="517.912109"/>
      <use xlink:href="#DejaVuSans-65" x="581.291016"/>
     </g>
    </g>
    <g id="text_8">
     <!-- 1e9 -->
     <g transform="translate(499.521875 394.476562) scale(0.1 -0.1)">
      <defs>
       <path id="DejaVuSans-39" d="M 703 97 
L 703 672 
Q 941 559 1184 500 
Q 1428 441 1663 441 
Q 2288 441 2617 861 
Q 2947 1281 2994 2138 
Q 2813 1869 2534 1725 
Q 2256 1581 1919 1581 
Q 1219 1581 811 2004 
Q 403 2428 403 3163 
Q 403 3881 828 4315 
Q 1253 4750 1959 4750 
Q 2769 4750 3195 4129 
Q 3622 3509 3622 2328 
Q 3622 1225 3098 567 
Q 2575 -91 1691 -91 
Q 1453 -91 1209 -44 
Q 966 3 703 97 
z
M 1959 2075 
Q 2384 2075 2632 2365 
Q 2881 2656 2881 3163 
Q 2881 3666 2632 3958 
Q 2384 4250 1959 4250 
Q 1534 4250 1286 3958 
Q 1038 3666 1038 3163 
Q 1038 2656 1286 2365 
Q 1534 2075 1959 2075 
z
" transform="scale(0.015625)"/>
      </defs>
      <use xlink:href="#DejaVuSans-31"/>
      <use xlink:href="#DejaVuSans-65" x="63.623047"/>
      <use xlink:href="#DejaVuSans-39" x="125.146484"/>
     </g>
    </g>
   </g>
   <g id="matplotlib.axis_2">
    <g id="ytick_1">
     <g id="line2d_7">
      <defs>
       <path id="mf0b1f93135" d="M 0 0 
L -3.5 0 
" style="stroke: #000000; stroke-width: 0.8"/>
      </defs>
      <g>
       <use xlink:href="#mf0b1f93135" x="86.4" y="367.2" style="stroke: #000000; stroke-width: 0.8"/>
      </g>
     </g>
     <g id="text_9">
      <!-- 0 -->
      <g transform="translate(73.0375 370.999219) scale(0.1 -0.1)">
       <use xlink:href="#DejaVuSans-30"/>
      </g>
     </g>
    </g>
    <g id="ytick_2">
     <g id="line2d_8">
      <g>
       <use xlink:href="#mf0b1f93135" x="86.4" y="331.2" style="stroke: #000000; stroke-width: 0.8"/>
      </g>
     </g>
     <g id="text_10">
      <!-- 100 -->
      <g transform="translate(60.3125 334.999219) scale(0.1 -0.1)">
       <use xlink:href="#DejaVuSans-31"/>
       <use xlink:href="#DejaVuSans-30" x="63.623047"/>
       <use xlink:href="#DejaVuSans-30" x="127.246094"/>
      </g>
     </g>
    </g>
    <g id="ytick_3">
     <g id="line2d_9">
      <g>
       <use xlink:href="#mf0b1f93135" x="86.4" y="295.2" style="stroke: #000000; stroke-width: 0.8"/>
      </g>
     </g>
     <g id="text_11">
      <!-- 200 -->
      <g transform="translate(60.3125 298.999219) scale(0.1 -0.1)">
       <use xlink:href="#DejaVuSans-32"/>
       <use xlink:href="#DejaVuSans-30" x="63.623047"/>
       <use xlink:href="#DejaVuSans-30" x="127.246094"/>
      </g>
     </g>
    </g>
    <g id="ytick_4">
     <g id="line2d_10">
      <g>
       <use xlink:href="#mf0b1f93135" x="86.4" y="259.2" style="stroke: #000000; stroke-width: 0.8"/>
      </g>
     </g>
     <g id="text_12">
      <!-- 300 -->
      <g transform="translate(60.3125 262.999219) scale(0.1 -0.1)">
       <defs>
        <path id="DejaVuSans-33" d="M 2597 2516 
Q 3050 2419 3304 2112 
Q 3559 1806 3559 1356 
Q 3559 666 3084 287 
Q 2609 -91 1734 -91 
Q 1441 -91 1130 -33 
Q 819 25 488 141 
L 488 750 
Q 750 597 1062 519 
Q 1375 441 1716 441 
Q 2309 441 2620 675 
Q 2931 909 2931 1356 
Q 2931 1769 2642 2001 
Q 2353 2234 1838 2234 
L 1294 2234 
L 1294 2753 
L 1863 2753 
Q 2328 2753 2575 2939 
Q 2822 3125 2822 3475 
Q 2822 3834 2567 4026 
Q 2313 4219 1838 4219 
Q 1578 4219 1281 4162 
Q 984 4106 628 3988 
L 628 4550 
Q 988 4650 1302 4700 
Q 1616 4750 1894 4750 
Q 2613 4750 3031 4423 
Q 3450 4097 3450 3541 
Q 3450 3153 3228 2886 
Q 3006 2619 2597 2516 
z
" transform="scale(0.015625)"/>
       </defs>
       <use xlink:href="#DejaVuSans-33"/>
       <use xlink:href="#DejaVuSans-30" x="63.623047"/>
       <use xlink:href="#DejaVuSans-30" x="127.246094"/>
      </g>
     </g>
    </g>
    <g id="ytick_5">
     <g id="line2d_11">
      <g>
       <use xlink:href="#mf0b1f93135" x="86.4" y="223.2" style="stroke: #000000; stroke-width: 0.8"/>
      </g>
     </g>
     <g id="text_13">
      <!-- 400 -->
      <g transform="translate(60.3125 226.999219) scale(0.1 -0.1)">
       <defs>
        <path id="DejaVuSans-34" d="M 2419 4116 
L 825 1625 
L 2419 1625 
L 2419 4116 
z
M 2253 4666 
L 3047 4666 
L 3047 1625 
L 3713 1625 
L 3713 1100 
L 3047 1100 
L 3047 0 
L 2419 0 
L 2419 1100 
L 313 1100 
L 313 1709 
L 2253 4666 
z
" transform="scale(0.015625)"/>
       </defs>
       <use xlink:href="#DejaVuSans-34"/>
       <use xlink:href="#DejaVuSans-30" x="63.623047"/>
       <use xlink:href="#DejaVuSans-30" x="127.246094"/>
      </g>
     </g>
    </g>
    <g id="ytick_6">
     <g id="line2d_12">
      <g>
       <use xlink:href="#mf0b1f93135" x="86.4" y="187.2" style="stroke: #000000; stroke-width: 0.8"/>
      </g>
     </g>
     <g id="text_14">
      <!-- 500 -->
      <g transform="translate(60.3125 190.999219) scale(0.1 -0.1)">
       <use xlink:href="#DejaVuSans-35"/>
       <use xlink:href="#DejaVuSans-30" x="63.623047"/>
       <use xlink:href="#DejaVuSans-30" x="127.246094"/>
      </g>
     </g>
    </g>
    <g id="ytick_7">
     <g id="line2d_13">
      <g>
       <use xlink:href="#mf0b1f93135" x="86.4" y="151.2" style="stroke: #000000; stroke-width: 0.8"/>
      </g>
     </g>
     <g id="text_15">
      <!-- 600 -->
      <g transform="translate(60.3125 154.999219) scale(0.1 -0.1)">
       <defs>
        <path id="DejaVuSans-36" d="M 2113 2584 
Q 1688 2584 1439 2293 
Q 1191 2003 1191 1497 
Q 1191 994 1439 701 
Q 1688 409 2113 409 
Q 2538 409 2786 701 
Q 3034 994 3034 1497 
Q 3034 2003 2786 2293 
Q 2538 2584 2113 2584 
z
M 3366 4563 
L 3366 3988 
Q 3128 4100 2886 4159 
Q 2644 4219 2406 4219 
Q 1781 4219 1451 3797 
Q 1122 3375 1075 2522 
Q 1259 2794 1537 2939 
Q 1816 3084 2150 3084 
Q 2853 3084 3261 2657 
Q 3669 2231 3669 1497 
Q 3669 778 3244 343 
Q 2819 -91 2113 -91 
Q 1303 -91 875 529 
Q 447 1150 447 2328 
Q 447 3434 972 4092 
Q 1497 4750 2381 4750 
Q 2619 4750 2861 4703 
Q 3103 4656 3366 4563 
z
" transform="scale(0.015625)"/>
       </defs>
       <use xlink:href="#DejaVuSans-36"/>
       <use xlink:href="#DejaVuSans-30" x="63.623047"/>
       <use xlink:href="#DejaVuSans-30" x="127.246094"/>
      </g>
     </g>
    </g>
    <g id="ytick_8">
     <g id="line2d_14">
      <g>
       <use xlink:href="#mf0b1f93135" x="86.4" y="115.2" style="stroke: #000000; stroke-width: 0.8"/>
      </g>
     </g>
     <g id="text_16">
      <!-- 700 -->
      <g transform="translate(60.3125 118.999219) scale(0.1 -0.1)">
       <defs>
        <path id="DejaVuSans-37" d="M 525 4666 
L 3525 4666 
L 3525 4397 
L 1831 0 
L 1172 0 
L 2766 4134 
L 525 4134 
L 525 4666 
z
" transform="scale(0.015625)"/>
       </defs>
       <use xlink:href="#DejaVuSans-37"/>
       <use xlink:href="#DejaVuSans-30" x="63.623047"/>
       <use xlink:href="#DejaVuSans-30" x="127.246094"/>
      </g>
     </g>
    </g>
    <g id="ytick_9">
     <g id="line2d_15">
      <g>
       <use xlink:href="#mf0b1f93135" x="86.4" y="79.2" style="stroke: #000000; stroke-width: 0.8"/>
      </g>
     </g>
     <g id="text_17">
      <!-- 800 -->
      <g transform="translate(60.3125 82.999219) scale(0.1 -0.1)">
       <defs>
        <path id="DejaVuSans-38" d="M 2034 2216 
Q 1584 2216 1326 1975 
Q 1069 1734 1069 1313 
Q 1069 891 1326 650 
Q 1584 409 2034 409 
Q 2484 409 2743 651 
Q 3003 894 3003 1313 
Q 3003 1734 2745 1975 
Q 2488 2216 2034 2216 
z
M 1403 2484 
Q 997 2584 770 2862 
Q 544 3141 544 3541 
Q 544 4100 942 4425 
Q 1341 4750 2034 4750 
Q 2731 4750 3128 4425 
Q 3525 4100 3525 3541 
Q 3525 3141 3298 2862 
Q 3072 2584 2669 2484 
Q 3125 2378 3379 2068 
Q 3634 1759 3634 1313 
Q 3634 634 3220 271 
Q 2806 -91 2034 -91 
Q 1263 -91 848 271 
Q 434 634 434 1313 
Q 434 1759 690 2068 
Q 947 2378 1403 2484 
z
M 1172 3481 
Q 1172 3119 1398 2916 
Q 1625 2713 2034 2713 
Q 2441 2713 2670 2916 
Q 2900 3119 2900 3481 
Q 2900 3844 2670 4047 
Q 2441 4250 2034 4250 
Q 1625 4250 1398 4047 
Q 1172 3844 1172 3481 
z
" transform="scale(0.015625)"/>
       </defs>
       <use xlink:href="#DejaVuSans-38"/>
       <use xlink:href="#DejaVuSans-30" x="63.623047"/>
       <use xlink:href="#DejaVuSans-30" x="127.246094"/>
      </g>
     </g>
    </g>
    <g id="text_18">
     <!-- Count -->
     <g transform="translate(54.232812 230.848437) rotate(-90) scale(0.1 -0.1)">
      <defs>
       <path id="DejaVuSans-43" d="M 4122 4306 
L 4122 3641 
Q 3803 3938 3442 4084 
Q 3081 4231 2675 4231 
Q 1875 4231 1450 3742 
Q 1025 3253 1025 2328 
Q 1025 1406 1450 917 
Q 1875 428 2675 428 
Q 3081 428 3442 575 
Q 3803 722 4122 1019 
L 4122 359 
Q 3791 134 3420 21 
Q 3050 -91 2638 -91 
Q 1578 -91 968 557 
Q 359 1206 359 2328 
Q 359 3453 968 4101 
Q 1578 4750 2638 4750 
Q 3056 4750 3426 4639 
Q 3797 4528 4122 4306 
z
" transform="scale(0.015625)"/>
       <path id="DejaVuSans-6f" d="M 1959 3097 
Q 1497 3097 1228 2736 
Q 959 2375 959 1747 
Q 959 1119 1226 758 
Q 1494 397 1959 397 
Q 2419 397 2687 759 
Q 2956 1122 2956 1747 
Q 2956 2369 2687 2733 
Q 2419 3097 1959 3097 
z
M 1959 3584 
Q 2709 3584 3137 3096 
Q 3566 2609 3566 1747 
Q 3566 888 3137 398 
Q 2709 -91 1959 -91 
Q 1206 -91 779 398 
Q 353 888 353 1747 
Q 353 2609 779 3096 
Q 1206 3584 1959 3584 
z
" transform="scale(0.015625)"/>
      </defs>
      <use xlink:href="#DejaVuSans-43"/>
      <use xlink:href="#DejaVuSans-6f" x="69.824219"/>
      <use xlink:href="#DejaVuSans-75" x="131.005859"/>
      <use xlink:href="#DejaVuSans-6e" x="194.384766"/>
      <use xlink:href="#DejaVuSans-74" x="257.763672"/>
     </g>
    </g>
   </g>
   <g id="patch_103">
    <path d="M 86.4 367.2 
L 86.4 64.8 
" style="fill: none; stroke: #000000; stroke-width: 0.8; stroke-linejoin: miter; stroke-linecap: square"/>
   </g>
   <g id="patch_104">
    <path d="M 86.4 367.2 
L 518.4 367.2 
" style="fill: none; stroke: #000000; stroke-width: 0.8; stroke-linejoin: miter; stroke-linecap: square"/>
   </g>
   <g id="text_19">
    <!-- Net Revenue Distribution -->
    <g transform="translate(226.92 58.8) scale(0.12 -0.12)">
     <defs>
      <path id="DejaVuSans-44" d="M 1259 4147 
L 1259 519 
L 2022 519 
Q 2988 519 3436 956 
Q 3884 1394 3884 2338 
Q 3884 3275 3436 3711 
Q 2988 4147 2022 4147 
L 1259 4147 
z
M 628 4666 
L 1925 4666 
Q 3281 4666 3915 4102 
Q 4550 3538 4550 2338 
Q 4550 1131 3912 565 
Q 3275 0 1925 0 
L 628 0 
L 628 4666 
z
" transform="scale(0.015625)"/>
      <path id="DejaVuSans-69" d="M 603 3500 
L 1178 3500 
L 1178 0 
L 603 0 
L 603 3500 
z
M 603 4863 
L 1178 4863 
L 1178 4134 
L 603 4134 
L 603 4863 
z
" transform="scale(0.015625)"/>
      <path id="DejaVuSans-73" d="M 2834 3397 
L 2834 2853 
Q 2591 2978 2328 3040 
Q 2066 3103 1784 3103 
Q 1356 3103 1142 2972 
Q 928 2841 928 2578 
Q 928 2378 1081 2264 
Q 1234 2150 1697 2047 
L 1894 2003 
Q 2506 1872 2764 1633 
Q 3022 1394 3022 966 
Q 3022 478 2636 193 
Q 2250 -91 1575 -91 
Q 1294 -91 989 -36 
Q 684 19 347 128 
L 347 722 
Q 666 556 975 473 
Q 1284 391 1588 391 
Q 1994 391 2212 530 
Q 2431 669 2431 922 
Q 2431 1156 2273 1281 
Q 2116 1406 1581 1522 
L 1381 1569 
Q 847 1681 609 1914 
Q 372 2147 372 2553 
Q 372 3047 722 3315 
Q 1072 3584 1716 3584 
Q 2034 3584 2315 3537 
Q 2597 3491 2834 3397 
z
" transform="scale(0.015625)"/>
      <path id="DejaVuSans-72" d="M 2631 2963 
Q 2534 3019 2420 3045 
Q 2306 3072 2169 3072 
Q 1681 3072 1420 2755 
Q 1159 2438 1159 1844 
L 1159 0 
L 581 0 
L 581 3500 
L 1159 3500 
L 1159 2956 
Q 1341 3275 1631 3429 
Q 1922 3584 2338 3584 
Q 2397 3584 2469 3576 
Q 2541 3569 2628 3553 
L 2631 2963 
z
" transform="scale(0.015625)"/>
      <path id="DejaVuSans-62" d="M 3116 1747 
Q 3116 2381 2855 2742 
Q 2594 3103 2138 3103 
Q 1681 3103 1420 2742 
Q 1159 2381 1159 1747 
Q 1159 1113 1420 752 
Q 1681 391 2138 391 
Q 2594 391 2855 752 
Q 3116 1113 3116 1747 
z
M 1159 2969 
Q 1341 3281 1617 3432 
Q 1894 3584 2278 3584 
Q 2916 3584 3314 3078 
Q 3713 2572 3713 1747 
Q 3713 922 3314 415 
Q 2916 -91 2278 -91 
Q 1894 -91 1617 61 
Q 1341 213 1159 525 
L 1159 0 
L 581 0 
L 581 4863 
L 1159 4863 
L 1159 2969 
z
" transform="scale(0.015625)"/>
     </defs>
     <use xlink:href="#DejaVuSans-4e"/>
     <use xlink:href="#DejaVuSans-65" x="74.804688"/>
     <use xlink:href="#DejaVuSans-74" x="136.328125"/>
     <use xlink:href="#DejaVuSans-20" x="175.537109"/>
     <use xlink:href="#DejaVuSans-52" x="207.324219"/>
     <use xlink:href="#DejaVuSans-65" x="272.306641"/>
     <use xlink:href="#DejaVuSans-76" x="333.830078"/>
     <use xlink:href="#DejaVuSans-65" x="393.009766"/>
     <use xlink:href="#DejaVuSans-6e" x="454.533203"/>
     <use xlink:href="#DejaVuSans-75" x="517.912109"/>
     <use xlink:href="#DejaVuSans-65" x="581.291016"/>
     <use xlink:href="#DejaVuSans-20" x="642.814453"/>
     <use xlink:href="#DejaVuSans-44" x="674.601562"/>
     <use xlink:href="#DejaVuSans-69" x="751.603516"/>
     <use xlink:href="#DejaVuSans-73" x="779.386719"/>
     <use xlink:href="#DejaVuSans-74" x="831.486328"/>
     <use xlink:href="#DejaVuSans-72" x="870.695312"/>
     <use xlink:href="#DejaVuSans-69" x="911.808594"/>
     <use xlink:href="#DejaVuSans-62" x="939.591797"/>
     <use xlink:href="#DejaVuSans-75" x="1003.068359"/>
     <use xlink:href="#DejaVuSans-74" x="1066.447266"/>
     <use xlink:href="#DejaVuSans-69" x="1105.65625"/>
     <use xlink:href="#DejaVuSans-6f" x="1133.439453"/>
     <use xlink:href="#DejaVuSans-6e" x="1194.621094"/>
    </g>
   </g>
  </g>
 </g>
 <defs>
  <clipPath id="p1e2a0badf8">
   <rect x="86.4" y="64.8" width="432" height="302.4"/>
  </clipPath>
 </defs>
</svg>
